<svg xmlns="http://www.w3.org/2000/svg" xmlns:xlink="http://www.w3.org/1999/xlink" viewBox="0 0 686.52 467.4"><defs><linearGradient id="8035f791-337e-4ddb-8d1e-27be2d2005fa" x1="544.1" y1="561.17" x2="687.77" y2="321.55" gradientUnits="userSpaceOnUse"><stop offset="0.01" stop-color="#231f20" stop-opacity="0.85"/><stop offset="0.16" stop-color="#231f20" stop-opacity="0.8"/><stop offset="0.7" stop-color="#231f20" stop-opacity="0.6"/><stop offset="0.97" stop-color="#231f20" stop-opacity="0.15"/><stop offset="1" stop-color="#231f20" stop-opacity="0.1"/></linearGradient><linearGradient id="d79befc9-ca0b-4d5c-9acb-bd37dbcde444" x1="-1492.81" y1="272.6" x2="-1410.03" y2="272.6" gradientTransform="matrix(-0.84, 0.48, -0.54, -0.88, -856.28, 1130.88)" gradientUnits="userSpaceOnUse"><stop offset="0" stop-color="#231f20" stop-opacity="0.7"/><stop offset="0.63" stop-color="#231f20" stop-opacity="0"/></linearGradient><linearGradient id="a7c198a6-d712-46d2-b965-0ada17013549" x1="-1345.79" y1="173.34" x2="-1473.35" y2="241.09" gradientTransform="matrix(-0.84, 0.48, -0.54, -0.88, -856.28, 1130.88)" gradientUnits="userSpaceOnUse"><stop offset="0.39" stop-color="#231f20" stop-opacity="0"/><stop offset="0.88" stop-color="#231f20" stop-opacity="0.9"/></linearGradient><linearGradient id="2a0d9a42-7e3c-4e63-9783-4a56b045b327" x1="-1493.65" y1="359.96" x2="-1410.8" y2="359.96" gradientTransform="matrix(-0.84, 0.48, -0.54, -0.88, -856.28, 1130.88)" gradientUnits="userSpaceOnUse"><stop offset="0" stop-color="#a7a9ac"/><stop offset="1" stop-color="#a7a9ac" stop-opacity="0.3"/></linearGradient><linearGradient id="619679a5-582a-4353-861a-aa42e93cc754" x1="-1410.09" y1="337.9" x2="-1329.21" y2="384.6" gradientTransform="matrix(-0.84, 0.48, -0.54, -0.88, -856.28, 1130.88)" gradientUnits="userSpaceOnUse"><stop offset="0" stop-color="#a7a9ac"/><stop offset="1" stop-color="#a7a9ac" stop-opacity="0.1"/></linearGradient><linearGradient id="e17cfcde-a57b-4974-9ba5-3103b260cc06" x1="-1431.52" y1="258.4" x2="-1389.31" y2="331.51" gradientTransform="matrix(-0.84, 0.48, -0.54, -0.88, -856.28, 1130.88)" gradientUnits="userSpaceOnUse"><stop offset="0" stop-color="#a7a9ac" stop-opacity="0.4"/><stop offset="0.99" stop-color="#a7a9ac" stop-opacity="0.1"/></linearGradient><linearGradient id="6f77d88a-82be-49a7-ac77-62e2ff0fdf51" x1="-1494.5" y1="447.7" x2="-1411.7" y2="447.7" gradientTransform="matrix(-0.84, 0.48, -0.54, -0.88, -856.28, 1130.88)" gradientUnits="userSpaceOnUse"><stop offset="0" stop-color="#231f20"/><stop offset="1" stop-color="#231f20" stop-opacity="0.3"/></linearGradient><linearGradient id="ed2a735a-8ce9-4d2c-8f98-f3ad3b540bef" x1="-1411.26" y1="425.36" x2="-1330.5" y2="471.99" xlink:href="#619679a5-582a-4353-861a-aa42e93cc754"/><linearGradient id="9e52d0f1-b532-487c-b187-f897f49c0207" x1="-1432.31" y1="345.98" x2="-1390.06" y2="419.16" gradientTransform="matrix(-0.84, 0.48, -0.54, -0.88, -856.28, 1130.88)" gradientUnits="userSpaceOnUse"><stop offset="0" stop-color="#231f20" stop-opacity="0.5"/><stop offset="0.99" stop-color="#231f20" stop-opacity="0.1"/></linearGradient><linearGradient id="25730f86-725e-477e-9492-6730779d0ef8" x1="-1410.03" y1="229.58" x2="-1327.18" y2="229.58" xlink:href="#2a0d9a42-7e3c-4e63-9783-4a56b045b327"/><linearGradient id="269d36a7-a660-43a6-96ea-ee8ddd0a0080" x1="-1326.56" y1="207.31" x2="-1245.78" y2="253.94" xlink:href="#619679a5-582a-4353-861a-aa42e93cc754"/><linearGradient id="89df7a6e-2f00-46a5-a39b-09b7cabc047a" x1="-1347.9" y1="127.57" x2="-1305.73" y2="200.6" gradientTransform="matrix(-0.84, 0.48, -0.54, -0.88, -856.28, 1130.88)" gradientUnits="userSpaceOnUse"><stop offset="0" stop-color="#231f20" stop-opacity="0.4"/><stop offset="0.02" stop-color="#a7a9ac" stop-opacity="0.4"/><stop offset="0.99" stop-color="#a7a9ac" stop-opacity="0.1"/></linearGradient><linearGradient id="bb680fbd-16a6-4b4f-98d4-7693cffcba6f" x1="-1408.77" y1="251.16" x2="-1329.87" y2="384.42" xlink:href="#d79befc9-ca0b-4d5c-9acb-bd37dbcde444"/><linearGradient id="2e5aca03-eecb-43fa-9100-592a1bfff8c1" x1="-1319.6" y1="287.27" x2="-1254.38" y2="349.42" gradientTransform="matrix(-0.84, 0.48, -0.54, -0.88, -856.28, 1130.88)" gradientUnits="userSpaceOnUse"><stop offset="0" stop-color="#231f20" stop-opacity="0.6"/><stop offset="0.56" stop-color="#231f20" stop-opacity="0"/></linearGradient><linearGradient id="ff108a92-2f63-4ba6-8b94-531d4b9a4c91" x1="-1263.58" y1="218.43" x2="-1391.67" y2="286.46" xlink:href="#a7c198a6-d712-46d2-b965-0ada17013549"/><linearGradient id="94f8c869-cf9b-4693-bb44-f79d530a18ca" x1="2266.33" y1="1422.08" x2="2349.13" y2="1422.08" gradientTransform="matrix(0.84, -0.48, 0.54, 0.88, -2632.44, 276.43)" gradientUnits="userSpaceOnUse"><stop offset="0" stop-color="#a7a9ac"/><stop offset="1" stop-color="#a7a9ac" stop-opacity="0.3"/></linearGradient><linearGradient id="4fa1131c-bdf9-4729-84dc-8abdb83894bd" x1="2349.54" y1="1399.31" x2="2430.61" y2="1446.12" gradientTransform="matrix(0.84, -0.48, 0.54, 0.88, -2632.44, 276.43)" gradientUnits="userSpaceOnUse"><stop offset="0" stop-color="#a7a9ac"/><stop offset="0.99" stop-color="#a7a9ac" stop-opacity="0.1"/></linearGradient><linearGradient id="4edb0d92-04ff-4e36-8a21-18a64e40d3aa" x1="-1327.18" y1="186.78" x2="-1244.34" y2="186.78" gradientTransform="matrix(-0.84, 0.48, -0.54, -0.88, -856.28, 1130.88)" gradientUnits="userSpaceOnUse"><stop offset="0" stop-color="#a7a9ac"/><stop offset="1" stop-color="#a7a9ac" stop-opacity="0.3"/></linearGradient><linearGradient id="b65c0640-c274-4787-85e8-3731329431eb" x1="-1243.84" y1="164.32" x2="-1163.2" y2="210.88" gradientTransform="matrix(-0.84, 0.48, -0.54, -0.88, -856.28, 1130.88)" gradientUnits="userSpaceOnUse"><stop offset="0" stop-color="#a7a9ac"/><stop offset="1" stop-color="#a7a9ac" stop-opacity="0.1"/></linearGradient><linearGradient id="af93621f-a057-4f08-b67b-0ec1544699a4" x1="-1265.01" y1="85.05" x2="-1223.08" y2="157.68" gradientTransform="matrix(-0.84, 0.48, -0.54, -0.88, -856.28, 1130.88)" gradientUnits="userSpaceOnUse"><stop offset="0" stop-color="#a7a9ac" stop-opacity="0.4"/><stop offset="0.99" stop-color="#a7a9ac" stop-opacity="0.1"/></linearGradient><linearGradient id="5a714d34-2a64-4391-9019-851771923229" x1="2328.58" y1="1320.46" x2="2370.32" y2="1392.76" gradientTransform="matrix(0.84, -0.48, 0.54, 0.88, -2632.44, 276.43)" gradientUnits="userSpaceOnUse"><stop offset="0" stop-color="#a7a9ac" stop-opacity="0.1"/><stop offset="1" stop-color="#a7a9ac"/></linearGradient><linearGradient id="3c396d5b-b8f7-47c3-9792-8099d6292ef2" x1="2495.91" y1="1059.4" x2="2537.78" y2="1131.92" gradientTransform="matrix(0.84, -0.48, 0.54, 0.88, -2632.44, 276.43)" gradientUnits="userSpaceOnUse"><stop offset="0" stop-color="#fff" stop-opacity="0.1"/><stop offset="0.05" stop-color="#fff" stop-opacity="0.58"/><stop offset="0.08" stop-color="#fff" stop-opacity="0.8"/><stop offset="0.6" stop-color="#fff" stop-opacity="0.3"/><stop offset="0.63" stop-color="#fff" stop-opacity="0.27"/><stop offset="0.79" stop-color="#fff" stop-opacity="0.12"/><stop offset="0.92" stop-color="#fff" stop-opacity="0.03"/><stop offset="1" stop-color="#fff" stop-opacity="0"/></linearGradient><linearGradient id="f6eebd39-38cc-4229-b3ca-64cc3a4e35b3" x1="2391.09" y1="1201.6" x2="2430.93" y2="1270.6" gradientTransform="matrix(0.84, -0.48, 0.54, 0.88, -2632.44, 276.43)" gradientUnits="userSpaceOnUse"><stop offset="0" stop-color="#fff" stop-opacity="0.8"/><stop offset="0.56" stop-color="#fff" stop-opacity="0.3"/></linearGradient><linearGradient id="630fafd7-c0a5-4af0-bed3-bcbbef259e04" x1="2328.58" y1="1320.46" x2="2370.32" y2="1392.76" gradientTransform="matrix(0.84, -0.48, 0.54, 0.88, -2632.44, 276.43)" gradientUnits="userSpaceOnUse"><stop offset="0" stop-color="#a7a9ac" stop-opacity="0.1"/><stop offset="0.01" stop-color="#b6b8ba" stop-opacity="0.22"/><stop offset="0.01" stop-color="#c7c8ca" stop-opacity="0.36"/><stop offset="0.02" stop-color="#d6d7d9" stop-opacity="0.48"/><stop offset="0.03" stop-color="#e3e4e5" stop-opacity="0.58"/><stop offset="0.04" stop-color="#edeeee" stop-opacity="0.66"/><stop offset="0.05" stop-color="#f5f6f6" stop-opacity="0.72"/><stop offset="0.07" stop-color="#fbfbfb" stop-opacity="0.77"/><stop offset="0.09" stop-color="#fefefe" stop-opacity="0.79"/><stop offset="0.15" stop-color="#fff" stop-opacity="0.8"/><stop offset="0.9" stop-color="#fff" stop-opacity="0.3"/></linearGradient><linearGradient id="8699b354-1599-49f4-8d25-c1dec8e9d21e" x1="93.48" y1="233.19" x2="186.22" y2="233.19" gradientUnits="userSpaceOnUse"><stop offset="0" stop-color="#231f20" stop-opacity="0.7"/><stop offset="0.58" stop-color="#231f20" stop-opacity="0"/></linearGradient><linearGradient id="cbb65b08-c9f5-465b-b777-694af6dc5133" x1="70.09" y1="272.95" x2="93.09" y2="233.12" gradientUnits="userSpaceOnUse"><stop offset="0" stop-color="#fff" stop-opacity="0.1"/><stop offset="0.04" stop-color="#fff" stop-opacity="0.15"/><stop offset="0.17" stop-color="#fff" stop-opacity="0.32"/><stop offset="0.31" stop-color="#fff" stop-opacity="0.45"/><stop offset="0.45" stop-color="#fff" stop-opacity="0.56"/><stop offset="0.59" stop-color="#fff" stop-opacity="0.64"/><stop offset="0.73" stop-color="#fff" stop-opacity="0.68"/><stop offset="0.87" stop-color="#fff" stop-opacity="0.7"/></linearGradient><linearGradient id="82710fc0-a601-48ea-ba16-351a6899210d" x1="92.81" y1="77.9" x2="185.53" y2="77.9" gradientUnits="userSpaceOnUse"><stop offset="0" stop-color="#231f20" stop-opacity="0.7"/><stop offset="0.55" stop-color="#231f20" stop-opacity="0"/></linearGradient><linearGradient id="ff0209e8-6ee3-48d5-b3fb-096bcd12d80a" x1="69.05" y1="117.78" x2="92.18" y2="77.71" xlink:href="#cbb65b08-c9f5-465b-b777-694af6dc5133"/><linearGradient id="51c6e698-9143-4f37-9bbb-8b5fbc55ccc6" x1="104.55" y1="59.49" x2="34.11" y2="18.83" gradientUnits="userSpaceOnUse"><stop offset="0" stop-color="#fff" stop-opacity="0"/><stop offset="0.8" stop-color="#fff" stop-opacity="0.7"/><stop offset="0.99" stop-color="#fff"/></linearGradient><linearGradient id="1f75f14b-159e-459b-831e-2515b56f5094" x1="2307.35" y1="1332.69" x2="2347.09" y2="1401.52" xlink:href="#f6eebd39-38cc-4229-b3ca-64cc3a4e35b3"/><linearGradient id="70ad8d44-52a9-4752-915c-ae1d4f371349" x1="94.77" y1="388.87" x2="187.42" y2="388.87" gradientUnits="userSpaceOnUse"><stop offset="0" stop-color="#231f20" stop-opacity="0.7"/><stop offset="0.49" stop-color="#231f20" stop-opacity="0"/></linearGradient><linearGradient id="2f8ba7d7-f50b-44b9-8dcd-41dfab15d6a3" x1="71.27" y1="428.92" x2="94.49" y2="388.7" xlink:href="#cbb65b08-c9f5-465b-b777-694af6dc5133"/><linearGradient id="434f22a4-77fa-4673-bf2d-546df848a82b" x1="106.4" y1="370.23" x2="36.19" y2="329.69" xlink:href="#51c6e698-9143-4f37-9bbb-8b5fbc55ccc6"/><linearGradient id="d21f44ab-fbac-4d4f-abda-b5b9974c76c5" x1="531.99" y1="544.02" x2="578.9" y2="544.02" gradientUnits="userSpaceOnUse"><stop offset="0.4" stop-color="#e95427" stop-opacity="0"/><stop offset="1" stop-color="#e95427" stop-opacity="0.5"/></linearGradient><linearGradient id="f54cc54b-0632-481b-9abb-21ef23db842d" x1="625.09" y1="544.21" x2="670.84" y2="544.21" xlink:href="#d21f44ab-fbac-4d4f-abda-b5b9974c76c5"/><linearGradient id="659a5a83-785a-48c6-8cd3-a98ba105bb7f" x1="694.42" y1="583.72" x2="694.42" y2="504.67" xlink:href="#d21f44ab-fbac-4d4f-abda-b5b9974c76c5"/><linearGradient id="d5cc3304-15c1-452c-b9d9-00bf57491096" x1="740.3" y1="505.94" x2="740.3" y2="426.88" xlink:href="#d21f44ab-fbac-4d4f-abda-b5b9974c76c5"/><linearGradient id="9b236e56-f493-4f2f-8410-628c0d8a1634" x1="716.33" y1="388.89" x2="762.35" y2="388.89" gradientUnits="userSpaceOnUse"><stop offset="0" stop-color="#e95427" stop-opacity="0.5"/><stop offset="0.6" stop-color="#e95427" stop-opacity="0"/></linearGradient><linearGradient id="74b43c6e-cd96-4933-aad4-1abf7baed9c0" x1="669.39" y1="311.29" x2="715.48" y2="311.29" xlink:href="#9b236e56-f493-4f2f-8410-628c0d8a1634"/><linearGradient id="f1047a72-bb94-4395-a387-a23a4841ccd8" x1="645.43" y1="311.84" x2="647.42" y2="310.7" gradientUnits="userSpaceOnUse"><stop offset="0.14" stop-color="#e95427" stop-opacity="0"/><stop offset="0.52" stop-color="#e95427" stop-opacity="0.5"/></linearGradient><linearGradient id="7fc90ecd-3dc8-465b-a0e3-3c4a3873700e" x1="105.29" y1="214.47" x2="34.86" y2="173.81" xlink:href="#51c6e698-9143-4f37-9bbb-8b5fbc55ccc6"/><linearGradient id="341117f8-36de-462a-ab55-07bd445c260b" x1="530.66" y1="466.34" x2="578.64" y2="466.34" gradientUnits="userSpaceOnUse"><stop offset="0" stop-color="#e95427" stop-opacity="0"/><stop offset="1" stop-color="#e95427" stop-opacity="0.5"/></linearGradient><linearGradient id="183b9e98-f838-48db-b51f-d0e3ec72a505" x1="577.94" y1="505.04" x2="671.28" y2="505.04" gradientUnits="userSpaceOnUse"><stop offset="0" stop-color="#e95427" stop-opacity="0.5"/><stop offset="1" stop-color="#e95427" stop-opacity="0"/></linearGradient><linearGradient id="27e90fe1-93c8-4eb3-bbfb-f5a6c023258c" x1="532.12" y1="622.18" x2="579.7" y2="622.18" gradientUnits="userSpaceOnUse"><stop offset="0" stop-color="#231f20" stop-opacity="0"/><stop offset="1" stop-color="#231f20" stop-opacity="0.8"/></linearGradient><linearGradient id="b03f2713-60f3-4715-b773-a724a50f21bd" x1="578.95" y1="660.53" x2="672.5" y2="660.53" gradientUnits="userSpaceOnUse"><stop offset="0" stop-color="#231f20" stop-opacity="0.8"/><stop offset="1" stop-color="#231f20" stop-opacity="0"/></linearGradient><linearGradient id="ee980020-b004-4944-acaa-509429a6d279" x1="139.4" y1="155.6" x2="232.68" y2="155.6" gradientUnits="userSpaceOnUse"><stop offset="0" stop-color="#231f20" stop-opacity="0.7"/><stop offset="0.8" stop-color="#231f20" stop-opacity="0"/></linearGradient><linearGradient id="4e9a372d-775a-4b2a-8006-1ce12db5704e" x1="186.22" y1="233.96" x2="279.32" y2="233.96" gradientUnits="userSpaceOnUse"><stop offset="0" stop-color="#231f20" stop-opacity="0.7"/><stop offset="1" stop-color="#231f20" stop-opacity="0"/></linearGradient><linearGradient id="f0b96c3e-4eae-4445-8813-c63e3779dcf2" x1="140.6" y1="310.89" x2="234" y2="310.89" gradientUnits="userSpaceOnUse"><stop offset="0" stop-color="#231f20" stop-opacity="0.7"/><stop offset="0.06" stop-color="#231f20" stop-opacity="0.63"/><stop offset="0.59" stop-color="#231f20" stop-opacity="0.17"/><stop offset="1" stop-color="#231f20" stop-opacity="0"/></linearGradient><linearGradient id="48cbba75-8010-4e9d-a350-9665137ab605" x1="151.13" y1="175.71" x2="220.75" y2="135.52" gradientUnits="userSpaceOnUse"><stop offset="0" stop-color="#e95427" stop-opacity="0.7"/><stop offset="0.03" stop-color="#e95427" stop-opacity="0.63"/><stop offset="0.13" stop-color="#e95427" stop-opacity="0.44"/><stop offset="0.22" stop-color="#e95427" stop-opacity="0.28"/><stop offset="0.32" stop-color="#e95427" stop-opacity="0.16"/><stop offset="0.41" stop-color="#e95427" stop-opacity="0.07"/><stop offset="0.5" stop-color="#e95427" stop-opacity="0.02"/><stop offset="0.59" stop-color="#e95427" stop-opacity="0"/></linearGradient><linearGradient id="15319fef-051e-492a-8d8f-b08924a20066" x1="186.22" y1="233.96" x2="279.32" y2="233.96" gradientUnits="userSpaceOnUse"><stop offset="0" stop-color="#e95427" stop-opacity="0.7"/><stop offset="0.13" stop-color="#e95427" stop-opacity="0.45"/><stop offset="0.25" stop-color="#e95427" stop-opacity="0.26"/><stop offset="0.36" stop-color="#e95427" stop-opacity="0.12"/><stop offset="0.45" stop-color="#e95427" stop-opacity="0.03"/><stop offset="0.51" stop-color="#e95427" stop-opacity="0"/></linearGradient><linearGradient id="5f5f5045-2de7-446a-a791-afe08dec5ae0" x1="222.62" y1="331.43" x2="152.25" y2="290.81" gradientUnits="userSpaceOnUse"><stop offset="0.4" stop-color="#e95427" stop-opacity="0"/><stop offset="0.47" stop-color="#e95427" stop-opacity="0.04"/><stop offset="0.58" stop-color="#e95427" stop-opacity="0.14"/><stop offset="0.72" stop-color="#e95427" stop-opacity="0.3"/><stop offset="0.89" stop-color="#e95427" stop-opacity="0.53"/><stop offset="1" stop-color="#e95427" stop-opacity="0.7"/></linearGradient><linearGradient id="7ac0e1e2-0944-4f05-973d-264ccdab7d85" x1="69.7" y1="155.39" x2="69.7" y2="77.91" gradientUnits="userSpaceOnUse"><stop offset="0.12" stop-color="#e95427" stop-opacity="0.7"/><stop offset="0.14" stop-color="#e95427" stop-opacity="0.63"/><stop offset="0.22" stop-color="#e95427" stop-opacity="0.44"/><stop offset="0.29" stop-color="#e95427" stop-opacity="0.28"/><stop offset="0.37" stop-color="#e95427" stop-opacity="0.16"/><stop offset="0.45" stop-color="#e95427" stop-opacity="0.07"/><stop offset="0.52" stop-color="#e95427" stop-opacity="0.02"/><stop offset="0.59" stop-color="#e95427" stop-opacity="0"/></linearGradient><linearGradient id="d2e69129-6ae5-4576-91a2-40895bd780de" x1="80.73" y1="155.39" x2="80.73" y2="113.78" gradientUnits="userSpaceOnUse"><stop offset="0.12" stop-color="#e95427" stop-opacity="0.1"/><stop offset="1" stop-color="#e95427" stop-opacity="0.1"/></linearGradient><linearGradient id="53ec7d2d-1193-47c5-ba69-929e28739af3" x1="71.3" y1="388.92" x2="71.3" y2="310.84" gradientUnits="userSpaceOnUse"><stop offset="0.41" stop-color="#e95427" stop-opacity="0"/><stop offset="0.48" stop-color="#e95427" stop-opacity="0.02"/><stop offset="0.55" stop-color="#e95427" stop-opacity="0.07"/><stop offset="0.63" stop-color="#e95427" stop-opacity="0.16"/><stop offset="0.71" stop-color="#e95427" stop-opacity="0.28"/><stop offset="0.78" stop-color="#e95427" stop-opacity="0.44"/><stop offset="0.86" stop-color="#e95427" stop-opacity="0.63"/><stop offset="0.88" stop-color="#e95427" stop-opacity="0.7"/></linearGradient><linearGradient id="ad28bb51-490f-442f-88ad-0b31ec06eb6e" x1="82.42" y1="351.99" x2="82.42" y2="310.84" gradientUnits="userSpaceOnUse"><stop offset="0.41" stop-color="#e95427" stop-opacity="0.1"/><stop offset="0.88" stop-color="#e95427" stop-opacity="0.1"/></linearGradient><linearGradient id="ef1797b1-666d-4619-9088-cba32225c163" x1="139.26" y1="155.39" x2="139.26" y2="0.41" gradientUnits="userSpaceOnUse"><stop offset="0" stop-color="#e95427" stop-opacity="0.7"/><stop offset="0.13" stop-color="#e95427" stop-opacity="0.45"/><stop offset="0.25" stop-color="#e95427" stop-opacity="0.26"/><stop offset="0.36" stop-color="#e95427" stop-opacity="0.12"/><stop offset="0.45" stop-color="#e95427" stop-opacity="0.03"/><stop offset="0.51" stop-color="#e95427" stop-opacity="0"/></linearGradient><linearGradient id="214194d6-7fc3-4ad7-a0af-1d9c85736be5" x1="141.31" y1="466.78" x2="141.31" y2="310.95" gradientUnits="userSpaceOnUse"><stop offset="0.49" stop-color="#e95427" stop-opacity="0"/><stop offset="0.55" stop-color="#e95427" stop-opacity="0.03"/><stop offset="0.64" stop-color="#e95427" stop-opacity="0.12"/><stop offset="0.75" stop-color="#e95427" stop-opacity="0.26"/><stop offset="0.87" stop-color="#e95427" stop-opacity="0.45"/><stop offset="1" stop-color="#e95427" stop-opacity="0.7"/></linearGradient><linearGradient id="f47038fe-20ba-4ea0-8106-d2898229b707" x1="623.06" y1="233.83" x2="669.68" y2="233.83" gradientUnits="userSpaceOnUse"><stop offset="0" stop-color="#fff"/><stop offset="1" stop-color="#a7a9ac" stop-opacity="0"/></linearGradient><linearGradient id="8417eebf-21e8-47e8-8dba-22e533faf0e4" x1="623.06" y1="310.94" x2="670.4" y2="310.94" xlink:href="#f47038fe-20ba-4ea0-8106-d2898229b707"/><linearGradient id="8eb8aecb-bedf-4eca-a345-59ee5f895302" x1="530.35" y1="272.47" x2="623.82" y2="272.47" gradientUnits="userSpaceOnUse"><stop offset="0" stop-color="#a7a9ac" stop-opacity="0"/><stop offset="1" stop-color="#fff"/></linearGradient><linearGradient id="cdb2dad7-6733-4921-a7b1-aba54ed663be" x1="624.58" y1="544.68" x2="670.65" y2="544.68" xlink:href="#f47038fe-20ba-4ea0-8106-d2898229b707"/><linearGradient id="a3a08f9e-50de-473b-9d5a-30236fadb8be" x1="624.58" y1="621.93" x2="672.14" y2="621.93" xlink:href="#f47038fe-20ba-4ea0-8106-d2898229b707"/><linearGradient id="058fdd80-44d5-4fee-afa7-ac970dda859f" x1="531.61" y1="583.29" x2="625.34" y2="583.29" xlink:href="#8eb8aecb-bedf-4eca-a345-59ee5f895302"/><linearGradient id="3b22b758-6b18-451b-acb3-783905740d16" x1="530.36" y1="311.66" x2="577.14" y2="311.66" gradientUnits="userSpaceOnUse"><stop offset="0" stop-color="#231f20" stop-opacity="0"/><stop offset="1" stop-color="#231f20" stop-opacity="0.5"/></linearGradient><linearGradient id="a2e79463-11c9-4f7f-9ccc-2108c3b39bdb" x1="576.39" y1="349.83" x2="670.08" y2="349.83" gradientUnits="userSpaceOnUse"><stop offset="0" stop-color="#231f20" stop-opacity="0.5"/><stop offset="1" stop-color="#231f20" stop-opacity="0"/></linearGradient><linearGradient id="76c98321-50e1-448e-a7af-85be90e78ab2" x1="668.74" y1="234.13" x2="715.96" y2="234.13" xlink:href="#3b22b758-6b18-451b-acb3-783905740d16"/><linearGradient id="afe8aa61-0423-422b-b6af-6da063492458" x1="669.64" y1="311.08" x2="715.97" y2="311.08" xlink:href="#3b22b758-6b18-451b-acb3-783905740d16"/><linearGradient id="81fa460e-a04e-48bd-87b8-b3029a94408e" x1="715.83" y1="312.07" x2="762.87" y2="312.07" xlink:href="#3b22b758-6b18-451b-acb3-783905740d16"/><linearGradient id="4431027c-e601-4e91-9f5d-91ae932d2b85" x1="716.14" y1="388.82" x2="762.92" y2="388.82" xlink:href="#3b22b758-6b18-451b-acb3-783905740d16"/><linearGradient id="b2422454-1533-4e72-a7eb-56db61fe6692" x1="762.88" y1="390" x2="809.92" y2="390" xlink:href="#3b22b758-6b18-451b-acb3-783905740d16"/><linearGradient id="c5b8861a-7365-4341-8590-ea30bffc04f1" x1="763.92" y1="467.22" x2="809.97" y2="467.22" xlink:href="#3b22b758-6b18-451b-acb3-783905740d16"/><linearGradient id="061ae91d-1f70-470e-8603-164cf7a8963d" x1="716.28" y1="467.02" x2="764.26" y2="467.02" xlink:href="#3b22b758-6b18-451b-acb3-783905740d16"/><linearGradient id="44ffde1c-5afd-4f9e-9eaa-e06453f75608" x1="717.73" y1="544.58" x2="764.31" y2="544.58" xlink:href="#3b22b758-6b18-451b-acb3-783905740d16"/><linearGradient id="3ac8bdd8-1484-402c-bd6b-a7087dc3140c" x1="670.53" y1="544.72" x2="718.03" y2="544.72" xlink:href="#3b22b758-6b18-451b-acb3-783905740d16"/><linearGradient id="3f44780a-ecd0-4b54-b5c0-07e70859f23f" x1="671.73" y1="622.13" x2="718.07" y2="622.13" xlink:href="#3b22b758-6b18-451b-acb3-783905740d16"/><linearGradient id="798de9c8-98f8-41e0-afaa-79642721de81" x1="669.05" y1="428.32" x2="840.78" y2="428.32" gradientUnits="userSpaceOnUse"><stop offset="0.02" stop-color="#fff" stop-opacity="0"/><stop offset="1" stop-color="#fff" stop-opacity="0.9"/></linearGradient><linearGradient id="30aef5c9-6427-42a0-b0a7-df9c6c497202" x1="623.47" y1="388.99" x2="670.08" y2="388.99" xlink:href="#f47038fe-20ba-4ea0-8106-d2898229b707"/><linearGradient id="bc3790dd-d21b-4a38-b3e7-d7a213774e04" x1="623.47" y1="466.34" x2="671.28" y2="466.34" xlink:href="#f47038fe-20ba-4ea0-8106-d2898229b707"/><linearGradient id="5ebe691e-337a-42df-95d3-0815e543b11f" x1="530.67" y1="427.8" x2="624.16" y2="427.8" xlink:href="#8eb8aecb-bedf-4eca-a345-59ee5f895302"/><linearGradient id="538a207a-3a07-46de-a791-476720e4ca44" x1="529.99" y1="389.09" x2="576.91" y2="389.09" xlink:href="#d21f44ab-fbac-4d4f-abda-b5b9974c76c5"/><linearGradient id="825c3b5e-87c5-455d-971b-c837be8a1d10" x1="529.99" y1="233.45" x2="576.18" y2="233.45" gradientUnits="userSpaceOnUse"><stop offset="0.4" stop-color="#231f20" stop-opacity="0"/><stop offset="1" stop-color="#231f20" stop-opacity="0.5"/></linearGradient><linearGradient id="d171561a-4910-4dff-acd0-6c3d4347d9ed" x1="575.56" y1="194.8" x2="669.28" y2="194.8" gradientUnits="userSpaceOnUse"><stop offset="0" stop-color="#231f20" stop-opacity="0.5"/><stop offset="0.6" stop-color="#231f20" stop-opacity="0"/></linearGradient></defs><title>Vector Smart Object</title><g style="isolation:isolate"><g id="b3f8089e-1bdc-4f82-8567-a09720cd021b" data-name="Layer 1"><path d="M884.18,327.9q3.87,0,3.88,3.88V496.66h89.42q3.88,0,3.88,3.88v21.19q0,3.87-3.88,3.88H858.59q-3.87,0-3.88-3.88v-190q0-3.88,3.88-3.88Z" transform="translate(-530.3 -194.49)" fill="#58595b"/><path d="M1093.24,526.12l9.3,31.79c.78,2.84-1.29,4.13-3.88,4.13h-23.26c-2.59,0-4.39-1.29-5.17-4.13l-9.3-31.53c-53.24-3.1-67.45-27.91-67.45-99.24,0-77.53,16.54-100.53,81.15-100.53,64.35,0,81.15,23,81.15,100.53C1155.78,496.14,1142.34,521.47,1093.24,526.12Zm29.2-99c0-55-7.49-71.59-47.81-71.59s-47.81,16.54-47.81,71.59c0,54.53,7.5,70.81,47.81,70.81S1122.44,481.67,1122.44,427.14Z" transform="translate(-530.3 -194.49)" fill="#58595b"/><path d="M914.69,622.46c0,29.15-6.81,39.42-30.61,39.42-5.77,0-22.33-.11-28.31-.42-.73,0-1-.21-1-.94v-76c0-.73.31-.94,1-.94,6-.32,22.54-.42,28.31-.42C907.87,583.15,914.69,593.53,914.69,622.46Zm-54.1-34.18v68.47h23.49c19.5,0,24.85-8.91,24.85-34.29,0-25.17-5.56-34.18-25.58-34.18Z" transform="translate(-530.3 -194.49)" fill="#58595b"/><path d="M935.75,583.67c.63,0,1,.31,1,.94v75.81c0,.63-.42.94-1,.94H932c-.63,0-1-.32-1-.94V584.61c0-.63.42-.94,1-.94Z" transform="translate(-530.3 -194.49)" fill="#58595b"/><path d="M1001.91,583.67a.94.94,0,0,1,.94.94v2.73c0,.63-.42.94-1.05.94H983.56c-20.45,0-24.54,8-24.54,34.29s4.09,34.18,24.54,34.18h18.24V624.56a.84.84,0,0,1,.94-.94h3.67a.83.83,0,0,1,.94.94v34.18a1.49,1.49,0,0,1-.42,1.15c-3.88,2.2-17.83,2-23.38,2-24.64,0-30.3-9.12-30.3-39.32s5.66-39.42,30.3-39.42C988.17,583.15,996.67,583.25,1001.91,583.67Z" transform="translate(-530.3 -194.49)" fill="#58595b"/><path d="M1028,583.67c.63,0,1,.31,1,.94v75.81c0,.63-.42.94-1,.94h-3.78c-.63,0-1-.32-1-.94V584.61c0-.63.42-.94,1-.94Z" transform="translate(-530.3 -194.49)" fill="#58595b"/><path d="M1097.41,583.67c.63,0,1.05.31,1.05.94v3.25c0,.63-.42.94-1.05.94h-25.27v71.61a.84.84,0,0,1-.94.94h-3.88a.83.83,0,0,1-.94-.94V588.81H1041c-.63,0-1-.31-1-.94v-3.25c0-.63.42-.94,1-.94Z" transform="translate(-530.3 -194.49)" fill="#58595b"/><path d="M1137.57,595.1l18.14,65.22c.21.84,0,1-.73,1h-4.3c-.53,0-.63-.21-.84-.94l-7.13-25.27h-34.08l-7.13,25.27c-.21.73-.42.94-.94.94h-4.3c-.73,0-.94-.21-.84-1L1114,595.1c2.94-10.38,4.09-12,11.64-12C1133.69,583.15,1134.73,584.72,1137.57,595.1Zm-18,1.36-9.44,33.45h31.14L1132,596.46c-2-7-2.41-8.18-6.39-8.18C1121.94,588.28,1121.52,589.44,1119.53,596.46Z" transform="translate(-530.3 -194.49)" fill="#58595b"/><path d="M1173.73,583.67c.63,0,1,.31,1,.94v71.61h41c.63,0,1,.31,1,.94v3.25c0,.63-.42.94-1,.94h-45.3c-.94,0-1.57-.42-1.57-1.47V584.61c0-.63.42-.94,1-.94Z" transform="translate(-530.3 -194.49)" fill="#58595b"/><path d="M763,350.67l-47.07-78h0L669,194.9l-93.1-.3L530.3,272.4l46.45,77.38L531,427.39h0v0l47,77.92L532.3,583.41l.19.32,0,.05,46.65,76.87,93,.68,46.08-77.93,46.15-77.19L810,428.62ZM623.84,427.55h0Z" transform="translate(-530.3 -194.49)" fill="#fff" opacity="0.71"/><path d="M763,350.67l-47.07-78h0L669,194.9l-93.1-.3L530.3,272.4l46.45,77.38L531,427.39h0v0l47,77.92L532.3,583.41l.19.32,46.62,76.93,93,.68,46.08-77.93,46.15-77.19L810,428.62ZM623.84,427.55h0Z" transform="translate(-530.3 -194.49)" opacity="0.71" fill="url(#8035f791-337e-4ddb-8d1e-27be2d2005fa)"/><polygon points="139.4 155.39 46.59 155.29 0.74 232.91 47.77 310.84 140.6 311 186.22 232.85 139.4 155.39" fill="#fec454" opacity="0.75"/><g style="mix-blend-mode:multiply"><polygon points="139.4 155.39 232.68 156.18 279.72 234.13 186.22 232.85 139.4 155.39" opacity="0.4" fill="url(#d79befc9-ca0b-4d5c-9acb-bd37dbcde444)" style="mix-blend-mode:multiply"/><polygon points="140.6 311 186.22 232.85 279.72 234.13 234 311.73 140.6 311" opacity="0.3" fill="url(#a7c198a6-d712-46d2-b965-0ada17013549)" style="mix-blend-mode:multiply"/><polygon points="185.61 78.19 92.81 78.08 46.45 155.29 93.56 233.05 186.22 232.85 232.68 156.18 185.61 78.19" fill="#fff" opacity="0.66"/><polygon points="186.22 232.85 93.56 233.05 47.77 310.84 94.81 388.92 187.84 388.92 234 311.73 186.22 232.85" fill="#fff" opacity="0.69"/><g opacity="0.3" style="mix-blend-mode:multiply"><polygon points="92.81 78.08 185.71 78.35 232.68 156.18 139.4 155.39 92.81 78.08" fill="url(#2a0d9a42-7e3c-4e63-9783-4a56b045b327)"/><polygon points="93.56 233.05 139.4 155.39 92.81 78.08 46.45 155.29 93.56 233.05" fill="url(#619679a5-582a-4353-861a-aa42e93cc754)"/><polygon points="93.56 233.05 139.4 155.39 232.68 156.18 186.22 232.85 93.56 233.05" fill="url(#e17cfcde-a57b-4974-9ba5-3103b260cc06)"/></g><g opacity="0.58" style="mix-blend-mode:multiply"><polygon points="45.57 0.1 138.67 0.41 185.71 78.35 92.81 78.08 45.57 0.1" fill="url(#6f77d88a-82be-49a7-ac77-62e2ff0fdf51)"/><polygon points="46.45 155.29 92.81 78.08 45.57 0.1 0 77.91 46.45 155.29" fill="url(#ed2a735a-8ce9-4d2c-8f98-f3ad3b540bef)"/><polygon points="46.45 155.29 92.81 78.08 185.71 78.35 139.4 155.39 46.45 155.29" fill="url(#9e52d0f1-b532-487c-b187-f897f49c0207)"/></g><g opacity="0.5"><g opacity="0.3" style="mix-blend-mode:multiply"><polygon points="93.56 233.05 186.22 232.85 234 311.73 140.6 311 93.56 233.05" fill="url(#25730f86-725e-477e-9492-6730779d0ef8)"/><polygon points="94.81 388.92 140.6 311 93.56 233.05 47.77 310.84 94.81 388.92" fill="url(#269d36a7-a660-43a6-96ea-ee8ddd0a0080)"/><polygon points="94.81 388.92 140.6 311 234 311.73 187.84 388.92 94.81 388.92" fill="url(#89df7a6e-2f00-46a5-a39b-09b7cabc047a)"/></g></g><g style="mix-blend-mode:multiply"><polygon points="46.45 155.29 139.4 155.39 186.22 232.85 93.56 233.05 46.45 155.29" fill="url(#bb680fbd-16a6-4b4f-98d4-7693cffcba6f)"/><polygon points="47.77 310.84 93.56 233.08 46.45 155.29 0.74 232.91 47.77 310.84" fill="url(#2e5aca03-eecb-43fa-9100-592a1bfff8c1)"/><polygon points="47.77 310.84 93.56 233.05 186.22 232.85 140.6 311 47.77 310.84" fill="url(#ff108a92-2f63-4ba6-8b94-531d4b9a4c91)"/></g><g opacity="0.3"><polygon points="141.76 466.85 48.81 466.16 2 388.92 94.66 388.49 141.76 466.85" fill="url(#94f8c869-cf9b-4693-bb44-f79d530a18ca)"/><polygon points="140.6 311 94.66 388.49 141.76 466.85 187.84 388.92 140.6 311" fill="url(#4fa1131c-bdf9-4729-84dc-8abdb83894bd)"/><g opacity="0.3" style="mix-blend-mode:multiply"><polygon points="47.77 310.84 140.6 311 187.84 388.92 94.81 388.87 47.77 310.84" fill="url(#4edb0d92-04ff-4e36-8a21-18a64e40d3aa)"/><polygon points="48.81 466.16 94.81 388.87 47.84 311.03 2.16 389.29 48.81 466.16" fill="url(#b65c0640-c274-4787-85e8-3731329431eb)"/><polygon points="48.97 466.53 94.81 388.87 187.84 388.92 141.76 466.85 48.97 466.53" fill="url(#af93621f-a057-4f08-b67b-0ec1544699a4)"/></g><polygon points="140.6 311 94.81 388.92 2 388.92 47.77 310.84 140.6 311" fill="url(#5a714d34-2a64-4391-9019-851771923229)"/></g></g><polygon points="139.4 155.39 46.45 155.29 0.74 232.91 47.77 310.84 140.6 311 186.22 232.85 139.4 155.39" fill="#ed7040" opacity="0.59" style="mix-blend-mode:multiply"/><polygon points="139.4 155.39 46.45 155.29 0.74 232.91 47.77 310.84 140.6 311 186.22 232.85 139.4 155.39" fill="#ed7040" opacity="0.71"/><polygon points="138.67 0.41 92.81 78.08 0 77.91 45.57 0.1 138.67 0.41" fill="url(#3c396d5b-b8f7-47c3-9792-8099d6292ef2)"/><polygon points="93.48 233.35 0.73 232.89 46.45 155.29 93.48 233.35" fill="url(#f6eebd39-38cc-4229-b3ca-64cc3a4e35b3)"/><polygon points="140.6 311 94.81 388.87 2 388.92 47.77 310.84 140.6 311" fill="url(#630fafd7-c0a5-4af0-bed3-bcbbef259e04)"/><polygon points="139.4 155.39 186.22 232.85 140.6 311 93.48 233.35 139.4 155.39" opacity="0.63" fill="url(#8699b354-1599-49f4-8d25-c1dec8e9d21e)" style="mix-blend-mode:multiply"/><polygon points="0.74 232.91 93.48 233.35 140.6 311 0.74 232.91" fill="url(#cbb65b08-c9f5-465b-b777-694af6dc5133)"/><polygon points="138.67 0.41 185.53 78.17 139.4 155.39 92.81 78.08 138.67 0.41" opacity="0.63" fill="url(#82710fc0-a601-48ea-ba16-351a6899210d)" style="mix-blend-mode:multiply"/><polygon points="0 77.91 92.81 78.08 139.4 155.39 0 77.91" fill="url(#ff0209e8-6ee3-48d5-b3fb-096bcd12d80a)"/><polygon points="124.4 24.24 0 77.91 45.57 0.1 138.67 0.41 124.4 24.24" fill="url(#51c6e698-9143-4f37-9bbb-8b5fbc55ccc6)"/><polygon points="94.77 388.87 1.98 388.9 47.61 311.13 94.77 388.87" fill="url(#1f75f14b-159e-459b-831e-2515b56f5094)"/><polygon points="140.6 310.95 187.42 388.41 141.75 466.78 94.77 388.87 140.6 310.95" opacity="0.63" fill="url(#70ad8d44-52a9-4752-915c-ae1d4f371349)" style="mix-blend-mode:multiply"/><polygon points="2 388.92 94.77 388.87 141.75 466.83 2 388.92" fill="url(#2f8ba7d7-f50b-44b9-8dcd-41dfab15d6a3)"/><polygon points="126.71 334.71 2 388.92 47.77 310.84 140.6 311 126.71 334.71" fill="url(#434f22a4-77fa-4673-bf2d-546df848a82b)"/><path d="M578.86,505.09,532.3,583.41l46-78.63a.31.31,0,0,1,.54.31Z" transform="translate(-530.3 -194.49)" fill="url(#d21f44ab-fbac-4d4f-abda-b5b9974c76c5)"/><path d="M670.79,505.6,625.4,583.29l44.86-78a.31.31,0,1,1,.54.31Z" transform="translate(-530.3 -194.49)" fill="url(#f54cc54b-0632-481b-9abb-21ef23db842d)"/><path d="M671.27,504.82l46.87,78.59-47.41-78.27a.31.31,0,1,1,.53-.32Z" transform="translate(-530.3 -194.49)" fill="url(#659a5a83-785a-48c6-8cd3-a98ba105bb7f)"/><path d="M717.16,427,764,505.63l-47.41-78.27a.31.31,0,0,1,.53-.32Z" transform="translate(-530.3 -194.49)" fill="url(#d5cc3304-15c1-452c-b9d9-00bf57491096)"/><path d="M716.38,426.64l45.66-76L716.91,427a.31.31,0,1,1-.54-.32Z" transform="translate(-530.3 -194.49)" fill="url(#9b236e56-f493-4f2f-8410-628c0d8a1634)"/><path d="M669.43,349.27l45.74-76.43L670,349.59a.31.31,0,0,1-.54-.32Z" transform="translate(-530.3 -194.49)" fill="url(#74b43c6e-cd96-4933-aad4-1abf7baed9c0)"/><path d="M669.21,349.67l-46-76.92,46.51,76.59a.31.31,0,1,1-.53.32Z" transform="translate(-530.3 -194.49)" fill="url(#f1047a72-bb94-4395-a387-a23a4841ccd8)"/><polygon points="125.56 178.88 0.75 232.89 46.45 155.29 139.4 155.39 125.56 178.88" fill="url(#7fc90ecd-3dc8-465b-a0e3-3c4a3873700e)"/><path d="M531,427.39l47.56,77.36a.37.37,0,1,1-.62.38h0Z" transform="translate(-530.3 -194.49)" fill="url(#341117f8-36de-462a-ab55-07bd445c260b)"/><path d="M670.9,505.49l-92.58-.13a.38.38,0,0,1,0-.76h0Z" transform="translate(-530.3 -194.49)" fill="url(#183b9e98-f838-48db-b51f-d0e3ec72a505)"/><path d="M532.49,583.73l47.16,76.35a.37.37,0,0,1-.62.39h0Z" transform="translate(-530.3 -194.49)" fill="url(#27e90fe1-93c8-4eb3-bbfb-f5a6c023258c)"/><path d="M672.12,661.17l-92.78-.52a.38.38,0,0,1,0-.76h0Z" transform="translate(-530.3 -194.49)" fill="url(#b03f2713-60f3-4715-b773-a724a50f21bd)"/><polygon points="185.71 78.35 232.68 156.18 186.22 232.85 139.4 155.39 185.71 78.35" opacity="0.63" fill="url(#ee980020-b004-4944-acaa-509429a6d279)" style="mix-blend-mode:multiply"/><polygon points="232.68 156.18 279.32 233.93 234 311.73 186.22 232.85 232.68 156.18" opacity="0.63" fill="url(#4e9a372d-775a-4b2a-8006-1ce12db5704e)" style="mix-blend-mode:multiply"/><polygon points="186.22 232.85 234 311.73 187.84 388.92 140.6 311 186.22 232.85" opacity="0.63" fill="url(#f0b96c3e-4eae-4445-8813-c63e3779dcf2)" style="mix-blend-mode:multiply"/><polygon points="185.71 78.35 232.68 156.18 186.22 232.85 139.4 155.39 185.71 78.35" opacity="0.63" fill="url(#48cbba75-8010-4e9d-a350-9665137ab605)"/><polygon points="232.68 156.18 279.32 233.93 234 311.73 186.22 232.85 232.68 156.18" opacity="0.63" fill="url(#15319fef-051e-492a-8d8f-b08924a20066)"/><polygon points="186.22 232.85 234 311.73 187.84 388.92 140.6 311 186.22 232.85" opacity="0.63" fill="url(#5f5f5045-2de7-446a-a791-afe08dec5ae0)"/><polygon points="92.81 78.08 139.4 155.39 46.45 155.29 0 77.91 92.81 78.08" opacity="0.47" fill="url(#7ac0e1e2-0944-4f05-973d-264ccdab7d85)" style="mix-blend-mode:multiply"/><polygon points="114.32 113.78 139.4 155.39 46.45 155.29 22.06 114.65 114.32 113.78" opacity="0.79" fill="url(#d2e69129-6ae5-4576-91a2-40895bd780de)" style="mix-blend-mode:multiply"/><polygon points="140.6 311 94.77 388.87 2 388.92 47.77 310.84 140.6 311" opacity="0.47" fill="url(#53ec7d2d-1193-47c5-ba69-929e28739af3)" style="mix-blend-mode:multiply"/><polygon points="140.6 311 116.48 351.99 24.25 350.96 47.77 310.84 140.6 311" opacity="0.79" fill="url(#ad28bb51-490f-442f-88ad-0b31ec06eb6e)" style="mix-blend-mode:multiply"/><polygon points="138.67 0.41 185.71 78.35 139.4 155.39 92.81 78.08 138.67 0.41" opacity="0.31" fill="url(#ef1797b1-666d-4619-9088-cba32225c163)"/><polygon points="140.6 310.95 187.84 388.92 141.75 466.78 94.77 388.87 140.6 310.95" opacity="0.31" fill="url(#214194d6-7fc3-4ad7-a0af-1d9c85736be5)"/><path d="M669.29,194.8l-45.52,77.87a.38.38,0,1,1-.66-.39h0Z" transform="translate(-530.3 -194.49)" fill="url(#f47038fe-20ba-4ea0-8106-d2898229b707)"/><path d="M670,349.78l-46.91-77.11a.38.38,0,1,1,.65-.4h0Z" transform="translate(-530.3 -194.49)" fill="url(#8417eebf-21e8-47e8-8dba-22e533faf0e4)"/><g opacity="0.5"><path d="M530.73,272.47l92.71-.38a.38.38,0,1,1,0,.76h0Z" transform="translate(-530.3 -194.49)" fill="url(#8eb8aecb-bedf-4eca-a345-59ee5f895302)"/></g><path d="M670.27,505.69l-45,77.79a.38.38,0,0,1-.66-.38h0Z" transform="translate(-530.3 -194.49)" fill="url(#cdb2dad7-6733-4921-a7b1-aba54ed663be)"/><path d="M671.76,660.94l-47.13-77.46a.38.38,0,0,1,.65-.4h0Z" transform="translate(-530.3 -194.49)" fill="url(#a3a08f9e-50de-473b-9d5a-30236fadb8be)"/><g opacity="0.5"><path d="M532,583l93-.11a.38.38,0,1,1,0,.76h0Z" transform="translate(-530.3 -194.49)" fill="url(#058fdd80-44d5-4fee-afa7-ac970dda859f)"/></g><path d="M530.73,273.12l46.36,76.53a.37.37,0,0,1-.63.38h0Z" transform="translate(-530.3 -194.49)" fill="url(#3b22b758-6b18-451b-acb3-783905740d16)"/><path d="M669.7,349.88l-92.93.33a.38.38,0,1,1,0-.76h0Z" transform="translate(-530.3 -194.49)" fill="url(#a2e79463-11c9-4f7f-9ccc-2108c3b39bdb)"/><path d="M669.1,195.13l46.8,77.45a.37.37,0,1,1-.63.38h0Z" transform="translate(-530.3 -194.49)" fill="url(#76c98321-50e1-448e-a7af-85be90e78ab2)"/><path d="M670,349.78l45.24-77.22a.38.38,0,1,1,.66.39h0Z" transform="translate(-530.3 -194.49)" fill="url(#afe8aa61-0423-422b-b6af-6da063492458)"/><path d="M716.19,273.15l46.63,77.29a.37.37,0,0,1-.63.38h0Z" transform="translate(-530.3 -194.49)" fill="url(#81fa460e-a04e-48bd-87b8-b3029a94408e)"/><path d="M716.52,427.34l45.69-76.86a.38.38,0,1,1,.66.39h0Z" transform="translate(-530.3 -194.49)" fill="url(#4431027c-e601-4e91-9f5d-91ae932d2b85)"/><path d="M763.24,351.07l46.63,77.29a.37.37,0,1,1-.63.38h0Z" transform="translate(-530.3 -194.49)" fill="url(#b2422454-1533-4e72-a7eb-56db61fe6692)"/><path d="M764.3,506.22l45-77.81a.38.38,0,1,1,.66.38h0Z" transform="translate(-530.3 -194.49)" fill="url(#c5b8861a-7365-4341-8590-ea30bffc04f1)"/><path d="M716.64,427.55l47.57,78.39a.37.37,0,1,1-.63.38h0Z" transform="translate(-530.3 -194.49)" fill="url(#061ae91d-1f70-470e-8603-164cf7a8963d)"/><path d="M718.11,583.36,763.6,506a.38.38,0,0,1,.66.39h0Z" transform="translate(-530.3 -194.49)" fill="url(#44ffde1c-5afd-4f9e-9eaa-e06453f75608)"/><path d="M670.9,505.65,718,583.23a.37.37,0,0,1-.63.38h0Z" transform="translate(-530.3 -194.49)" fill="url(#3ac8bdd8-1484-402c-bd6b-a7087dc3140c)"/><path d="M672.12,661.17l45.25-77.89a.38.38,0,0,1,.66.38h0Z" transform="translate(-530.3 -194.49)" fill="url(#3f44780a-ecd0-4b54-b5c0-07e70859f23f)"/><path d="M672.07,661.34s108.12-222.84-3-466L810,428.79Z" transform="translate(-530.3 -194.49)" fill="url(#798de9c8-98f8-41e0-afaa-79642721de81)"/><path d="M669.7,349.88l-45.51,78a.38.38,0,1,1-.66-.38h0Z" transform="translate(-530.3 -194.49)" fill="url(#30aef5c9-6427-42a0-b0a7-df9c6c497202)"/><path d="M670.9,505.49l-47.37-77.72a.38.38,0,0,1,.65-.4h0Z" transform="translate(-530.3 -194.49)" fill="url(#bc3790dd-d21b-4a38-b3e7-d7a213774e04)"/><g opacity="0.5"><path d="M531.06,427.39l92.73.07a.38.38,0,1,1,0,.76h0Z" transform="translate(-530.3 -194.49)" fill="url(#5ebe691e-337a-42df-95d3-0815e543b11f)"/></g><path d="M576.86,350.17,530.3,428.49l46-78.63a.31.31,0,1,1,.54.31Z" transform="translate(-530.3 -194.49)" fill="url(#538a207a-3a07-46de-a791-476720e4ca44)"/><g opacity="0.54"><path d="M576.14,195,530.3,272.4l45.3-77.76a.31.31,0,0,1,.54.31Z" transform="translate(-530.3 -194.49)" fill="url(#825c3b5e-87c5-455d-971b-c837be8a1d10)"/><path d="M575.87,194.49l93.1.41-93.1.21a.31.31,0,1,1,0-.62Z" transform="translate(-530.3 -194.49)" fill="url(#d171561a-4910-4dff-acd0-6c3d4347d9ed)"/></g></g></g></svg>