<svg width="148" height="38" viewBox="0 0 148 38" fill="none" xmlns="http://www.w3.org/2000/svg"><path fill-rule="evenodd" clip-rule="evenodd" d="M128.897 1.19893C130.431 0.316503 132.316 0.316504 133.85 1.19893L145.498 7.89977C147.045 8.79019 148 10.4435 148 12.2337V25.5874C148 27.3776 147.045 29.0309 145.498 29.9213L133.85 36.6221C132.316 37.5046 130.431 37.5046 128.897 36.6221L123.063 33.2657C122.586 32.9913 122.421 32.3807 122.694 31.902C122.968 31.4233 123.576 31.2577 124.053 31.5322L129.888 34.8886C130.808 35.418 131.939 35.418 132.859 34.8886L144.507 28.1877C145.436 27.6535 146.008 26.6615 146.008 25.5874V12.2337C146.008 11.1596 145.436 10.1676 144.507 9.63333L132.859 2.93249C131.939 2.40303 130.808 2.40303 129.888 2.93249L117.626 9.9863C117.149 10.2608 116.541 10.0952 116.267 9.61649C115.994 9.13778 116.159 8.5272 116.636 8.25274L128.897 1.19893Z" fill="#FFDE7C"></path><path d="M2.19469 17.1583C2.56689 16.669 3.07385 16.2569 3.71558 15.922C4.3573 15.5872 5.08245 15.4198 5.89102 15.4198C6.8151 15.4198 7.65575 15.6516 8.41299 16.1152C9.18306 16.5659 9.78627 17.2034 10.2226 18.0276C10.659 18.8518 10.8772 19.7983 10.8772 20.8671C10.8772 21.936 10.659 22.8954 10.2226 23.7453C9.78627 24.5824 9.18306 25.2392 8.41299 25.7156C7.65575 26.1792 6.8151 26.411 5.89102 26.411C5.08245 26.411 4.36372 26.2501 3.73483 25.9281C3.10594 25.5933 2.59256 25.1812 2.19469 24.6919V31.2982H0V15.5937H2.19469V17.1583ZM8.64401 20.8671C8.64401 20.1331 8.49 19.5021 8.18197 18.9741C7.88678 18.4332 7.48891 18.0276 6.98836 17.7571C6.50065 17.4738 5.97444 17.3322 5.40972 17.3322C4.85784 17.3322 4.33163 17.4738 3.83109 17.7571C3.34338 18.0404 2.94551 18.4525 2.63748 18.9934C2.34229 19.5343 2.19469 20.1717 2.19469 20.9058C2.19469 21.6398 2.34229 22.2837 2.63748 22.8374C2.94551 23.3783 3.34338 23.7904 3.83109 24.0737C4.33163 24.357 4.85784 24.4987 5.40972 24.4987C5.97444 24.4987 6.50065 24.357 6.98836 24.0737C7.48891 23.7775 7.88678 23.3526 8.18197 22.7988C8.49 22.2451 8.64401 21.6012 8.64401 20.8671Z" fill="#071414"></path><path d="M12.1234 20.8671C12.1234 19.7983 12.3416 18.8518 12.778 18.0276C13.2272 17.2034 13.8304 16.5659 14.5877 16.1152C15.3577 15.6516 16.2048 15.4198 17.1289 15.4198C17.9631 15.4198 18.6883 15.5872 19.3043 15.922C19.9332 16.244 20.4338 16.6496 20.806 17.139V15.5937H23.0199V26.2372H20.806V24.6532C20.4338 25.1555 19.9268 25.574 19.2851 25.9088C18.6434 26.2436 17.9118 26.411 17.0904 26.411C16.1791 26.411 15.3449 26.1792 14.5877 25.7156C13.8304 25.2392 13.2272 24.5824 12.778 23.7453C12.3416 22.8954 12.1234 21.936 12.1234 20.8671ZM20.806 20.9058C20.806 20.1717 20.6519 19.5343 20.3439 18.9934C20.0487 18.4525 19.6573 18.0404 19.1696 17.7571C18.6819 17.4738 18.1556 17.3322 17.5909 17.3322C17.0262 17.3322 16.5 17.4738 16.0123 17.7571C15.5246 18.0276 15.1267 18.4332 14.8187 18.9741C14.5235 19.5021 14.3759 20.1331 14.3759 20.8671C14.3759 21.6012 14.5235 22.2451 14.8187 22.7988C15.1267 23.3526 15.5246 23.7775 16.0123 24.0737C16.5128 24.357 17.039 24.4987 17.5909 24.4987C18.1556 24.4987 18.6819 24.357 19.1696 24.0737C19.6573 23.7904 20.0487 23.3783 20.3439 22.8374C20.6519 22.2837 20.806 21.6398 20.806 20.9058Z" fill="#071414"></path><path d="M28.2705 17.3901V23.2817C28.2705 23.6809 28.3603 23.9707 28.54 24.151C28.7325 24.3184 29.0534 24.4021 29.5026 24.4021H30.8502V26.2372H29.1176C28.1293 26.2372 27.3721 26.0054 26.8459 25.5418C26.3197 25.0782 26.0566 24.3248 26.0566 23.2817V17.3901H24.8052V15.5937H26.0566V12.9473H28.2705V15.5937H30.8502V17.3901H28.2705Z" fill="#071414"></path><path d="M33.7971 14.1835C33.3992 14.1835 33.0655 14.0483 32.796 13.7779C32.5265 13.5074 32.3917 13.1726 32.3917 12.7734C32.3917 12.3742 32.5265 12.0394 32.796 11.7689C33.0655 11.4985 33.3992 11.3633 33.7971 11.3633C34.1821 11.3633 34.5094 11.4985 34.7789 11.7689C35.0485 12.0394 35.1832 12.3742 35.1832 12.7734C35.1832 13.1726 35.0485 13.5074 34.7789 13.7779C34.5094 14.0483 34.1821 14.1835 33.7971 14.1835ZM34.8752 15.5937V26.2372H32.6805V15.5937H34.8752Z" fill="#071414"></path><path d="M47.0937 20.6546C47.0937 21.0539 47.068 21.4144 47.0167 21.7364H38.9117C38.9759 22.5863 39.2903 23.2689 39.8551 23.784C40.4198 24.2991 41.1128 24.5566 41.9342 24.5566C43.115 24.5566 43.9492 24.0608 44.437 23.0692H46.8049C46.4841 24.048 45.9001 24.8528 45.053 25.4838C44.2188 26.102 43.1792 26.411 41.9342 26.411C40.9203 26.411 40.0091 26.1857 39.2005 25.735C38.4048 25.2714 37.7759 24.6275 37.3138 23.8033C36.8646 22.9662 36.64 22.0004 36.64 20.9058C36.64 19.8111 36.8582 18.8518 37.2946 18.0276C37.7438 17.1905 38.3663 16.5466 39.162 16.0959C39.9706 15.6452 40.8946 15.4198 41.9342 15.4198C42.9353 15.4198 43.8273 15.6387 44.6102 16.0766C45.3931 16.5144 46.0028 17.1326 46.4391 17.931C46.8755 18.7165 47.0937 19.6244 47.0937 20.6546ZM44.8027 19.9592C44.7899 19.1479 44.5011 18.4976 43.9364 18.0083C43.3717 17.5189 42.6722 17.2742 41.838 17.2742C41.0807 17.2742 40.4326 17.5189 39.8936 18.0083C39.3545 18.4847 39.0337 19.1351 38.931 19.9592H44.8027Z" fill="#071414"></path><path d="M54.2204 15.4198C55.0547 15.4198 55.7991 15.5937 56.4536 15.9414C57.121 16.2891 57.6408 16.8042 58.013 17.4867C58.3852 18.1692 58.5713 18.9934 58.5713 19.9592V26.2372H56.3959V20.2876C56.3959 19.3347 56.1584 18.6071 55.6836 18.1048C55.2087 17.5897 54.5605 17.3322 53.7391 17.3322C52.9177 17.3322 52.2632 17.5897 51.7755 18.1048C51.3006 18.6071 51.0631 19.3347 51.0631 20.2876V26.2372H48.8685V15.5937H51.0631V16.8106C51.4225 16.3728 51.8781 16.0315 52.43 15.7868C52.9947 15.5421 53.5915 15.4198 54.2204 15.4198Z" fill="#071414"></path><path d="M63.5462 17.3901V23.2817C63.5462 23.6809 63.6361 23.9707 63.8157 24.151C64.0083 24.3184 64.3291 24.4021 64.7783 24.4021H66.1259V26.2372H64.3933C63.405 26.2372 62.6478 26.0054 62.1216 25.5418C61.5954 25.0782 61.3323 24.3248 61.3323 23.2817V17.3901H60.0809V15.5937H61.3323V12.9473H63.5462V15.5937H66.1259V17.3901H63.5462Z" fill="#071414"></path><path d="M71.9991 26.411C71.1648 26.411 70.414 26.263 69.7466 25.9668C69.092 25.6577 68.5723 25.2456 68.1872 24.7305C67.8022 24.2025 67.5968 23.6166 67.5712 22.9727H69.8429C69.8814 23.4234 70.0931 23.8033 70.4782 24.1124C70.876 24.4085 71.3702 24.5566 71.9606 24.5566C72.5766 24.5566 73.0515 24.4407 73.3852 24.2089C73.7317 23.9643 73.905 23.6552 73.905 23.2817C73.905 22.8825 73.7125 22.5863 73.3274 22.3932C72.9552 22.2 72.3584 21.9875 71.537 21.7557C70.7413 21.5368 70.0931 21.3243 69.5926 21.1183C69.0921 20.9122 68.6557 20.5967 68.2835 20.1717C67.9241 19.7468 67.7444 19.1866 67.7444 18.4912C67.7444 17.9245 67.9113 17.4094 68.245 16.9458C68.5787 16.4693 69.0536 16.0959 69.6696 15.8255C70.2985 15.555 71.0172 15.4198 71.8258 15.4198C73.0322 15.4198 74.0012 15.7289 74.7328 16.347C75.4772 16.9523 75.8751 17.7829 75.9264 18.8389H73.7317C73.6932 18.3624 73.5007 17.9825 73.1542 17.6992C72.8076 17.4159 72.3392 17.2742 71.7488 17.2742C71.1712 17.2742 70.7284 17.3837 70.4204 17.6026C70.1124 17.8215 69.9584 18.1113 69.9584 18.4719C69.9584 18.7552 70.0611 18.9934 70.2664 19.1866C70.4718 19.3797 70.722 19.5343 71.0172 19.6502C71.3124 19.7532 71.7488 19.8884 72.3263 20.0558C73.0964 20.2619 73.7253 20.4744 74.213 20.6933C74.7135 20.8993 75.1435 21.2084 75.5029 21.6205C75.8622 22.0326 76.0483 22.5799 76.0612 23.2624C76.0612 23.8677 75.8943 24.4085 75.5606 24.885C75.2269 25.3615 74.752 25.735 74.136 26.0054C73.5328 26.2758 72.8205 26.411 71.9991 26.411Z" fill="#071414"></path><path d="M79.6839 11.9427V26.2372H78.3363V11.9427H79.6839Z" fill="#697171"></path><path d="M83.0244 13.7006C82.7549 13.7006 82.5238 13.604 82.3313 13.4108C82.1388 13.2176 82.0425 12.9794 82.0425 12.6961C82.0425 12.4128 82.1388 12.181 82.3313 12.0007C82.5238 11.8075 82.7549 11.7109 83.0244 11.7109C83.2939 11.7109 83.5249 11.8075 83.7174 12.0007C83.91 12.181 84.0062 12.4128 84.0062 12.6961C84.0062 12.9794 83.91 13.2176 83.7174 13.4108C83.5249 13.604 83.2939 13.7006 83.0244 13.7006ZM83.6982 15.6902V26.2372H82.3506V15.6902H83.6982Z" fill="#697171"></path><path d="M92.1404 26.2372L87.8087 21.5045V26.2372H86.4611V11.9427H87.8087V20.4035L92.0441 15.6902H93.9308L88.9446 20.9444L93.9693 26.2372H92.1404Z" fill="#697171"></path><path d="M104.451 20.4228C104.451 20.8864 104.438 21.2405 104.413 21.4852H95.6917C95.7302 22.2837 95.9227 22.9662 96.2693 23.5328C96.6158 24.0994 97.0714 24.5308 97.6361 24.827C98.2008 25.1103 98.8169 25.252 99.4843 25.252C100.357 25.252 101.089 25.0395 101.679 24.6145C102.282 24.1896 102.68 23.6165 102.873 22.8954H104.297C104.041 23.9256 103.489 24.7691 102.642 25.4258C101.807 26.0697 100.755 26.3917 99.4843 26.3917C98.496 26.3917 97.6105 26.1728 96.8276 25.7349C96.0446 25.2842 95.4286 24.6532 94.9794 23.8419C94.543 23.0177 94.3248 22.0583 94.3248 20.9637C94.3248 19.8691 94.543 18.9097 94.9794 18.0855C95.4158 17.2613 96.0254 16.6303 96.8083 16.1924C97.5912 15.7546 98.4832 15.5357 99.4843 15.5357C100.485 15.5357 101.358 15.7546 102.103 16.1924C102.86 16.6303 103.437 17.2227 103.835 17.9696C104.246 18.7036 104.451 19.5214 104.451 20.4228ZM103.084 20.3842C103.097 19.5986 102.937 18.929 102.603 18.3752C102.282 17.8215 101.839 17.4029 101.275 17.1196C100.71 16.8363 100.094 16.6947 99.4265 16.6947C98.4254 16.6947 97.5719 17.0166 96.8661 17.6605C96.1602 18.3044 95.7687 19.2123 95.6917 20.3842H103.084Z" fill="#697171"></path><path d="M119.758 15.3816C121.067 15.3816 122.119 15.7873 122.915 16.5986C123.723 17.397 124.128 18.5174 124.128 19.9597V26.2376H121.433V20.3267C121.433 19.4897 121.221 18.8522 120.797 18.4144C120.374 17.9636 119.796 17.7383 119.065 17.7383C118.333 17.7383 117.749 17.9636 117.313 18.4144C116.889 18.8522 116.677 19.4897 116.677 20.3267V26.2376H113.982V20.3267C113.982 19.4897 113.77 18.8522 113.347 18.4144C112.923 17.9636 112.346 17.7383 111.614 17.7383C110.87 17.7383 110.279 17.9636 109.843 18.4144C109.419 18.8522 109.208 19.4897 109.208 20.3267V26.2376H106.512V15.5362H109.208V16.8304C109.554 16.3797 109.997 16.0255 110.536 15.768C111.088 15.5104 111.691 15.3816 112.346 15.3816C113.18 15.3816 113.924 15.5619 114.579 15.9225C115.233 16.2702 115.74 16.7724 116.1 17.4292C116.446 16.8111 116.947 16.3153 117.601 15.9418C118.269 15.5684 118.988 15.3816 119.758 15.3816Z" fill="#071414"></path><path d="M136.407 20.6551C136.407 21.0414 136.382 21.3891 136.33 21.6982H128.534C128.598 22.4709 128.867 23.0761 129.342 23.514C129.817 23.9518 130.401 24.1708 131.094 24.1708C132.095 24.1708 132.807 23.7393 133.231 22.8765H136.138C135.83 23.9068 135.24 24.7567 134.367 25.4263C133.494 26.0831 132.422 26.4115 131.152 26.4115C130.125 26.4115 129.201 26.1861 128.38 25.7354C127.571 25.2718 126.936 24.6215 126.474 23.7844C126.024 22.9474 125.8 21.9815 125.8 20.8869C125.8 19.7794 126.024 18.8071 126.474 17.9701C126.923 17.133 127.552 16.4891 128.36 16.0384C129.169 15.5877 130.099 15.3623 131.152 15.3623C132.166 15.3623 133.071 15.5812 133.866 16.0191C134.675 16.4569 135.297 17.0815 135.734 17.8928C136.183 18.6912 136.407 19.612 136.407 20.6551ZM133.616 19.8824C133.603 19.187 133.353 18.6333 132.865 18.2212C132.377 17.7962 131.781 17.5837 131.075 17.5837C130.407 17.5837 129.843 17.7898 129.381 18.2019C128.931 18.6011 128.655 19.1613 128.553 19.8824H133.616Z" fill="#071414"></path><path d="M139.365 14.1182C139.365 14.6385 139.181 15.0878 138.834 15.4425C138.465 15.8209 138.05 15.9864 137.542 15.9864C137.034 15.9864 136.596 15.7972 136.25 15.4425C135.88 15.0641 135.719 14.6385 135.719 14.1182C135.719 13.5979 135.903 13.1486 136.25 12.7939C136.619 12.4155 137.034 12.25 137.542 12.25C138.05 12.25 138.488 12.4392 138.834 12.7939C139.204 13.1486 139.365 13.5979 139.365 14.1182ZM138.973 14.1182C138.973 13.7162 138.834 13.3615 138.557 13.0777C138.28 12.7939 137.934 12.652 137.542 12.652C137.15 12.652 136.803 12.7939 136.527 13.0777C136.25 13.3615 136.111 13.7162 136.111 14.1182C136.111 14.5202 136.25 14.8749 136.527 15.1587C136.803 15.4425 137.15 15.5844 137.542 15.5844C137.934 15.5844 138.28 15.4425 138.557 15.1587C138.834 14.8513 138.973 14.5202 138.973 14.1182ZM138.557 14.9932H137.98L137.427 14.3074H137.242V14.9932H136.78V13.125H137.473C137.611 13.125 137.704 13.125 137.773 13.1486C137.842 13.1486 137.934 13.1959 138.004 13.2196C138.096 13.2669 138.142 13.3142 138.188 13.3851C138.234 13.4561 138.257 13.527 138.257 13.6452C138.257 13.7871 138.211 13.9054 138.142 13.9763C138.073 14.0709 137.957 14.1418 137.842 14.1891L138.557 14.9932ZM137.773 13.6925C137.773 13.6452 137.773 13.6216 137.75 13.5743C137.727 13.5506 137.704 13.527 137.657 13.5033C137.611 13.4797 137.588 13.4797 137.542 13.4561C137.496 13.4561 137.45 13.4561 137.38 13.4561H137.242V13.9763H137.357C137.427 13.9763 137.496 13.9763 137.542 13.9527C137.588 13.9527 137.634 13.929 137.68 13.9054C137.704 13.8817 137.727 13.8581 137.75 13.8108C137.773 13.7871 137.773 13.7398 137.773 13.6925Z" fill="#071414"></path></svg>