<svg xmlns="http://www.w3.org/2000/svg" width="168" height="69" viewBox="0 0 168 69" fill="none"><script xmlns="http://www.w3.org/1999/xhtml" src="chrome-extension://fgddmllnllkalaagkghckoinaemmogpe/src/scripts/content/location-spoofing.js"></script>
<path fill-rule="evenodd" clip-rule="evenodd" d="M138.897 11.6596C140.431 10.7801 142.316 10.7801 143.85 11.6596L155.498 18.3379C157.045 19.2253 158 20.873 158 22.6572V35.9659C158 37.75 157.045 39.3978 155.498 40.2852L143.85 46.9634C142.316 47.8429 140.431 47.8429 138.897 46.9634L133.063 43.6184C132.586 43.3448 132.421 42.7363 132.694 42.2592C132.968 41.7821 133.576 41.6171 134.053 41.8906L139.887 45.2357C140.808 45.7634 141.939 45.7634 142.859 45.2357L154.507 38.5575C155.436 38.025 156.008 37.0364 156.008 35.9659V22.6572C156.008 21.5867 155.436 20.598 154.507 20.0656L142.859 13.3873C141.939 12.8596 140.808 12.8596 139.887 13.3873L127.626 20.4173C127.149 20.6909 126.541 20.5259 126.267 20.0488C125.994 19.5717 126.159 18.9632 126.636 18.6896L138.897 11.6596Z" fill="#FFDE7C"/>
<path d="M12.1947 27.5656C12.5669 27.0779 13.0739 26.6672 13.7156 26.3335C14.3573 25.9998 15.0824 25.8329 15.891 25.8329C16.8151 25.8329 17.6558 26.0639 18.413 26.526C19.1831 26.9752 19.7863 27.6105 20.2226 28.4319C20.659 29.2533 20.8772 30.1966 20.8772 31.2619C20.8772 32.3272 20.659 33.2833 20.2226 34.1304C19.7863 34.9646 19.1831 35.6192 18.413 36.0941C17.6558 36.5561 16.8151 36.7871 15.891 36.7871C15.0824 36.7871 14.3637 36.6267 13.7348 36.3058C13.1059 35.9721 12.5926 35.5614 12.1947 35.0737V41.6578H10V26.0062H12.1947V27.5656ZM18.644 31.2619C18.644 30.5303 18.49 29.9014 18.182 29.3752C17.8868 28.8362 17.4889 28.4319 16.9884 28.1624C16.5007 27.88 15.9744 27.7388 15.4097 27.7388C14.8578 27.7388 14.3316 27.88 13.8311 28.1624C13.3434 28.4447 12.9455 28.8554 12.6375 29.3945C12.3423 29.9335 12.1947 30.5688 12.1947 31.3004C12.1947 32.032 12.3423 32.6737 12.6375 33.2256C12.9455 33.7646 13.3434 34.1753 13.8311 34.4577C14.3316 34.74 14.8578 34.8812 15.4097 34.8812C15.9744 34.8812 16.5007 34.74 16.9884 34.4577C17.4889 34.1625 17.8868 33.739 18.182 33.1871C18.49 32.6352 18.644 31.9935 18.644 31.2619Z" fill="#071414"/>
<path d="M22.1234 31.2619C22.1234 30.1966 22.3416 29.2533 22.778 28.4319C23.2272 27.6105 23.8304 26.9752 24.5877 26.526C25.3577 26.0639 26.2048 25.8329 27.1289 25.8329C27.9631 25.8329 28.6883 25.9998 29.3043 26.3335C29.9332 26.6543 30.4338 27.0586 30.806 27.5463V26.0062H33.0199V36.6139H30.806V35.0352C30.4338 35.5358 29.9268 35.9529 29.2851 36.2866C28.6434 36.6203 27.9118 36.7871 27.0904 36.7871C26.1791 36.7871 25.3449 36.5561 24.5877 36.0941C23.8304 35.6192 23.2272 34.9646 22.778 34.1304C22.3416 33.2833 22.1234 32.3272 22.1234 31.2619ZM30.806 31.3004C30.806 30.5688 30.6519 29.9335 30.3439 29.3945C30.0487 28.8554 29.6573 28.4447 29.1696 28.1624C28.6819 27.88 28.1556 27.7388 27.5909 27.7388C27.0262 27.7388 26.5 27.88 26.0123 28.1624C25.5246 28.4319 25.1267 28.8362 24.8187 29.3752C24.5235 29.9014 24.3759 30.5303 24.3759 31.2619C24.3759 31.9935 24.5235 32.6352 24.8187 33.1871C25.1267 33.739 25.5246 34.1625 26.0123 34.4577C26.5128 34.74 27.039 34.8812 27.5909 34.8812C28.1556 34.8812 28.6819 34.74 29.1696 34.4577C29.6573 34.1753 30.0487 33.7646 30.3439 33.2256C30.6519 32.6737 30.806 32.032 30.806 31.3004Z" fill="#071414"/>
<path d="M38.2705 27.7966V33.6684C38.2705 34.0662 38.3603 34.355 38.54 34.5347C38.7325 34.7015 39.0534 34.785 39.5026 34.785H40.8502V36.6139H39.1176C38.1293 36.6139 37.3721 36.3828 36.8459 35.9208C36.3197 35.4588 36.0566 34.708 36.0566 33.6684V27.7966H34.8052V26.0062H36.0566V23.3687H38.2705V26.0062H40.8502V27.7966H38.2705Z" fill="#071414"/>
<path d="M43.7971 24.6008C43.3992 24.6008 43.0655 24.4661 42.796 24.1965C42.5265 23.927 42.3917 23.5933 42.3917 23.1954C42.3917 22.7976 42.5265 22.4639 42.796 22.1944C43.0655 21.9248 43.3992 21.7901 43.7971 21.7901C44.1821 21.7901 44.5094 21.9248 44.7789 22.1944C45.0485 22.4639 45.1832 22.7976 45.1832 23.1954C45.1832 23.5933 45.0485 23.927 44.7789 24.1965C44.5094 24.4661 44.1821 24.6008 43.7971 24.6008ZM44.8752 26.0062V36.6139H42.6805V26.0062H44.8752Z" fill="#071414"/>
<path d="M57.0937 31.0501C57.0937 31.448 57.068 31.8074 57.0167 32.1282H48.9117C48.9759 32.9753 49.2903 33.6555 49.8551 34.1689C50.4198 34.6823 51.1128 34.939 51.9342 34.939C53.115 34.939 53.9492 34.4448 54.437 33.4566H56.8049C56.4841 34.432 55.9001 35.2342 55.053 35.8631C54.2188 36.4791 53.1792 36.7871 51.9342 36.7871C50.9203 36.7871 50.0091 36.5625 49.2005 36.1133C48.4048 35.6513 47.7759 35.0096 47.3138 34.1882C46.8646 33.3539 46.64 32.3913 46.64 31.3004C46.64 30.2095 46.8582 29.2533 47.2946 28.4319C47.7438 27.5977 48.3663 26.9559 49.162 26.5067C49.9706 26.0575 50.8946 25.8329 51.9342 25.8329C52.9353 25.8329 53.8273 26.0511 54.6102 26.4875C55.3931 26.9239 56.0028 27.5399 56.4391 28.3356C56.8755 29.1185 57.0937 30.0234 57.0937 31.0501ZM54.8027 30.3571C54.7899 29.5485 54.5011 28.9004 53.9364 28.4127C53.3717 27.9249 52.6722 27.6811 51.838 27.6811C51.0807 27.6811 50.4326 27.9249 49.8936 28.4127C49.3545 28.8875 49.0337 29.5357 48.931 30.3571H54.8027Z" fill="#071414"/>
<path d="M64.2204 25.8329C65.0547 25.8329 65.7991 26.0062 66.4536 26.3527C67.121 26.6993 67.6408 27.2126 68.013 27.8929C68.3852 28.5731 68.5713 29.3945 68.5713 30.3571V36.6139H66.3959V30.6844C66.3959 29.7346 66.1584 29.0095 65.6836 28.5089C65.2087 27.9955 64.5605 27.7388 63.7391 27.7388C62.9177 27.7388 62.2632 27.9955 61.7755 28.5089C61.3006 29.0095 61.0631 29.7346 61.0631 30.6844V36.6139H58.8685V26.0062H61.0631V27.219C61.4225 26.7827 61.8781 26.4426 62.43 26.1987C62.9947 25.9549 63.5915 25.8329 64.2204 25.8329Z" fill="#071414"/>
<path d="M73.5462 27.7966V33.6684C73.5462 34.0662 73.6361 34.355 73.8157 34.5347C74.0083 34.7015 74.3291 34.785 74.7783 34.785H76.1259V36.6139H74.3933C73.405 36.6139 72.6478 36.3828 72.1216 35.9208C71.5954 35.4588 71.3323 34.708 71.3323 33.6684V27.7966H70.0809V26.0062H71.3323V23.3687H73.5462V26.0062H76.1259V27.7966H73.5462Z" fill="#071414"/>
<path d="M81.9991 36.7871C81.1648 36.7871 80.414 36.6395 79.7466 36.3443C79.092 36.0363 78.5723 35.6256 78.1872 35.1122C77.8022 34.586 77.5968 34.0021 77.5712 33.3603H79.8429C79.8814 33.8095 80.0931 34.1882 80.4782 34.4962C80.876 34.7914 81.3702 34.939 81.9606 34.939C82.5766 34.939 83.0515 34.8235 83.3852 34.5924C83.7317 34.3486 83.905 34.0406 83.905 33.6684C83.905 33.2705 83.7125 32.9753 83.3274 32.7828C82.9552 32.5903 82.3584 32.3785 81.537 32.1475C80.7413 31.9293 80.0931 31.7175 79.5926 31.5122C79.0921 31.3068 78.6557 30.9924 78.2835 30.5688C77.9241 30.1453 77.7444 29.587 77.7444 28.8939C77.7444 28.3292 77.9113 27.8158 78.245 27.3538C78.5787 26.8789 79.0536 26.5067 79.6696 26.2372C80.2985 25.9677 81.0172 25.8329 81.8258 25.8329C83.0322 25.8329 84.0012 26.141 84.7328 26.757C85.4772 27.3602 85.8751 28.188 85.9264 29.2405H83.7317C83.6932 28.7656 83.5007 28.387 83.1542 28.1046C82.8076 27.8223 82.3392 27.6811 81.7488 27.6811C81.1712 27.6811 80.7284 27.7902 80.4204 28.0084C80.1124 28.2266 79.9584 28.5153 79.9584 28.8747C79.9584 29.157 80.0611 29.3945 80.2664 29.587C80.4718 29.7795 80.722 29.9335 81.0172 30.049C81.3124 30.1517 81.7488 30.2865 82.3263 30.4533C83.0964 30.6587 83.7253 30.8705 84.213 31.0886C84.7135 31.294 85.1435 31.602 85.5029 32.0127C85.8622 32.4234 86.0483 32.9689 86.0612 33.6491C86.0612 34.2523 85.8943 34.7914 85.5606 35.2663C85.2269 35.7411 84.752 36.1133 84.136 36.3828C83.5328 36.6524 82.8205 36.7871 81.9991 36.7871Z" fill="#071414"/>
<path d="M89.6839 22.3676V36.6139H88.3363V22.3676H89.6839Z" fill="#697171"/>
<path d="M93.0244 24.1195C92.7549 24.1195 92.5239 24.0233 92.3313 23.8307C92.1388 23.6382 92.0426 23.4008 92.0426 23.1184C92.0426 22.8361 92.1388 22.6051 92.3313 22.4254C92.5239 22.2329 92.7549 22.1366 93.0244 22.1366C93.2939 22.1366 93.5249 22.2329 93.7175 22.4254C93.91 22.6051 94.0062 22.8361 94.0062 23.1184C94.0062 23.4008 93.91 23.6382 93.7175 23.8307C93.5249 24.0233 93.2939 24.1195 93.0244 24.1195ZM93.6982 26.1024V36.6139H92.3506V26.1024H93.6982Z" fill="#697171"/>
<path d="M102.14 36.6139L97.8088 31.8972V36.6139H96.4611V22.3676H97.8088V30.7999L102.044 26.1024H103.931L98.9446 31.3389L103.969 36.6139H102.14Z" fill="#697171"/>
<path d="M114.451 30.8191C114.451 31.2811 114.438 31.6341 114.413 31.878H105.692C105.73 32.6737 105.923 33.3539 106.269 33.9186C106.616 34.4833 107.071 34.9133 107.636 35.2085C108.201 35.4909 108.817 35.632 109.484 35.632C110.357 35.632 111.089 35.4203 111.679 34.9967C112.282 34.5732 112.68 34.0021 112.873 33.2833H114.297C114.041 34.3101 113.489 35.1507 112.642 35.8053C111.807 36.447 110.755 36.7679 109.484 36.7679C108.496 36.7679 107.61 36.5497 106.828 36.1133C106.045 35.6641 105.429 35.0352 104.979 34.2267C104.543 33.4053 104.325 32.4491 104.325 31.3582C104.325 30.2672 104.543 29.3111 104.979 28.4897C105.416 27.6682 106.025 27.0394 106.808 26.603C107.591 26.1666 108.483 25.9484 109.484 25.9484C110.485 25.9484 111.358 26.1666 112.103 26.603C112.86 27.0394 113.437 27.6297 113.835 28.3741C114.246 29.1057 114.451 29.9207 114.451 30.8191ZM113.084 30.7806C113.097 29.9977 112.937 29.3303 112.603 28.7784C112.282 28.2265 111.839 27.8094 111.275 27.5271C110.71 27.2447 110.094 27.1035 109.427 27.1035C108.425 27.1035 107.572 27.4244 106.866 28.0661C106.16 28.7078 105.769 29.6127 105.692 30.7806H113.084Z" fill="#697171"/>
<path d="M129.758 25.7944C131.067 25.7944 132.119 26.1987 132.915 27.0073C133.724 27.803 134.128 28.9196 134.128 30.3571V36.6139H131.433V30.7229C131.433 29.8886 131.221 29.2533 130.797 28.8169C130.374 28.3677 129.796 28.1431 129.065 28.1431C128.333 28.1431 127.749 28.3677 127.313 28.8169C126.889 29.2533 126.677 29.8886 126.677 30.7229V36.6139H123.982V30.7229C123.982 29.8886 123.77 29.2533 123.347 28.8169C122.923 28.3677 122.346 28.1431 121.614 28.1431C120.87 28.1431 120.279 28.3677 119.843 28.8169C119.42 29.2533 119.208 29.8886 119.208 30.7229V36.6139H116.513V25.9484H119.208V27.2383C119.554 26.7891 119.997 26.4362 120.536 26.1795C121.088 25.9228 121.691 25.7944 122.346 25.7944C123.18 25.7944 123.924 25.9741 124.579 26.3335C125.234 26.68 125.74 27.1806 126.1 27.8351C126.446 27.2191 126.947 26.7249 127.601 26.3527C128.269 25.9805 128.988 25.7944 129.758 25.7944Z" fill="#071414"/>
<path d="M146.408 31.0501C146.408 31.4352 146.382 31.7817 146.331 32.0897H138.534C138.598 32.8598 138.867 33.463 139.342 33.8994C139.817 34.3358 140.401 34.5539 141.094 34.5539C142.095 34.5539 142.807 34.124 143.231 33.2641H146.138C145.83 34.2908 145.24 35.1379 144.367 35.8053C143.494 36.4599 142.422 36.7871 141.152 36.7871C140.125 36.7871 139.201 36.5625 138.38 36.1133C137.571 35.6513 136.936 35.0032 136.474 34.1689C136.024 33.3347 135.8 32.3721 135.8 31.2812C135.8 30.1774 136.024 29.2084 136.474 28.3742C136.923 27.5399 137.552 26.8982 138.36 26.449C139.169 25.9998 140.099 25.7752 141.152 25.7752C142.166 25.7752 143.071 25.9934 143.866 26.4297C144.675 26.8661 145.297 27.4886 145.734 28.2971C146.183 29.0929 146.408 30.0105 146.408 31.0501ZM143.616 30.2801C143.603 29.587 143.353 29.0351 142.865 28.6244C142.378 28.2009 141.781 27.9891 141.075 27.9891C140.407 27.9891 139.843 28.1945 139.381 28.6052C138.931 29.003 138.656 29.5613 138.553 30.2801H143.616Z" fill="#071414"/>
<path d="M149.365 24.5349C149.365 25.0534 149.181 25.5012 148.834 25.8547C148.465 26.2318 148.05 26.3968 147.542 26.3968C147.034 26.3968 146.596 26.2083 146.25 25.8547C145.88 25.4776 145.719 25.0534 145.719 24.5349C145.719 24.0164 145.903 23.5686 146.25 23.2151C146.619 22.838 147.034 22.673 147.542 22.673C148.05 22.673 148.488 22.8616 148.834 23.2151C149.204 23.5686 149.365 24.0164 149.365 24.5349ZM148.973 24.5349C148.973 24.1342 148.834 23.7807 148.557 23.4979C148.28 23.2151 147.934 23.0737 147.542 23.0737C147.15 23.0737 146.803 23.2151 146.527 23.4979C146.25 23.7807 146.111 24.1342 146.111 24.5349C146.111 24.9356 146.25 25.2891 146.527 25.5719C146.803 25.8547 147.15 25.9961 147.542 25.9961C147.934 25.9961 148.28 25.8547 148.557 25.5719C148.834 25.2655 148.973 24.9356 148.973 24.5349ZM148.557 25.4069H147.98L147.427 24.7235H147.242V25.4069H146.78V23.545H147.473C147.611 23.545 147.704 23.545 147.773 23.5686C147.842 23.5686 147.934 23.6157 148.004 23.6393C148.096 23.6864 148.142 23.7336 148.188 23.8043C148.234 23.875 148.257 23.9457 148.257 24.0635C148.257 24.205 148.211 24.3228 148.142 24.3935C148.073 24.4878 147.957 24.5585 147.842 24.6056L148.557 25.4069ZM147.773 24.1107C147.773 24.0635 147.773 24.04 147.75 23.9928C147.727 23.9693 147.704 23.9457 147.657 23.9221C147.611 23.8986 147.588 23.8986 147.542 23.875C147.496 23.875 147.45 23.875 147.38 23.875H147.242V24.3935H147.357C147.427 24.3935 147.496 24.3935 147.542 24.3699C147.588 24.3699 147.634 24.3464 147.68 24.3228C147.704 24.2992 147.727 24.2757 147.75 24.2285C147.773 24.2049 147.773 24.1578 147.773 24.1107Z" fill="#071414"/>
<path d="M48.3143 51.7314C48.0971 51.6229 47.8429 51.5686 47.5657 51.5686H46.0143C46.0143 51.5686 46 51.5743 46 51.5829V55.8457C46 55.8457 46.0057 55.86 46.0143 55.86H46.6457C46.6457 55.86 46.66 55.8543 46.66 55.8457V54.2029H47.5657C47.8429 54.2029 48.0971 54.1486 48.3143 54.04C48.5343 53.9314 48.7057 53.7771 48.8286 53.5771C48.9514 53.38 49.0114 53.1457 49.0114 52.8829C49.0114 52.62 48.9486 52.3886 48.8286 52.1886C48.7057 51.9886 48.5343 51.8343 48.3143 51.7257V51.7314ZM46.6629 52.1029H47.5057C47.7657 52.1029 47.9714 52.1714 48.12 52.3114C48.2686 52.4486 48.3429 52.6429 48.3429 52.8886C48.3429 53.1343 48.2686 53.3286 48.12 53.4657C47.9714 53.6029 47.7657 53.6743 47.5057 53.6743H46.6629V52.1086V52.1029ZM51.7686 52.8457C51.52 52.7029 51.2371 52.6286 50.9229 52.6286C50.6086 52.6286 50.3229 52.7029 50.0714 52.8457C49.8229 52.9886 49.6229 53.1914 49.4857 53.4429C49.3486 53.6943 49.2743 53.98 49.2743 54.2886C49.2743 54.5971 49.3457 54.8771 49.4857 55.1286C49.6257 55.38 49.8229 55.58 50.0714 55.7257C50.32 55.8686 50.6086 55.9429 50.9229 55.9429C51.2371 55.9429 51.5229 55.8686 51.7686 55.7257C52.0143 55.5829 52.2114 55.38 52.3514 55.1286C52.4914 54.8771 52.5629 54.5943 52.5629 54.2886C52.5629 53.9829 52.4914 53.6943 52.3514 53.4429C52.2114 53.1914 52.0171 52.9914 51.7686 52.8457ZM50.9229 55.4143C50.6257 55.4143 50.38 55.3086 50.2 55.1029C50.0171 54.8971 49.9257 54.6229 49.9257 54.2886C49.9257 53.9543 50.0171 53.6771 50.1971 53.4686C50.3771 53.26 50.62 53.1543 50.9229 53.1543C51.2257 53.1543 51.4686 53.26 51.6486 53.4686C51.8286 53.6771 51.92 53.9543 51.92 54.2886C51.92 54.6229 51.8286 54.8971 51.6486 55.1029C51.4686 55.3086 51.2257 55.4143 50.9229 55.4143ZM57.6971 52.7086H57.1C57.1 52.7086 57.0886 52.7143 57.0857 52.72L56.32 55.1257L55.5286 52.72C55.5286 52.72 55.52 52.7086 55.5143 52.7086H54.8771C54.8771 52.7086 54.8657 52.7114 54.8629 52.72L54.0657 55.1257L53.3086 52.72C53.3086 52.72 53.3 52.7086 53.2943 52.7086H52.6571C52.6571 52.7086 52.6486 52.7086 52.6457 52.7143C52.6457 52.7171 52.6429 52.7229 52.6457 52.7286L53.72 55.8514C53.72 55.8514 53.7286 55.8629 53.7343 55.8629H54.3914C54.3914 55.8629 54.4029 55.86 54.4057 55.8514L55.1829 53.5571L55.9657 55.8514C55.9657 55.8514 55.9743 55.8629 55.98 55.8629H56.6371C56.6371 55.8629 56.6486 55.86 56.6514 55.8514L57.7114 52.7286V52.7143C57.7083 52.7113 57.7043 52.7093 57.7 52.7086H57.6971ZM60.2114 52.8371C59.98 52.7 59.7057 52.6314 59.4 52.6314C59.0943 52.6314 58.8171 52.7029 58.5743 52.8457C58.3314 52.9886 58.1371 53.1857 58 53.44C57.8629 53.6914 57.7943 53.98 57.7943 54.2943C57.7943 54.6086 57.8629 54.9029 58 55.1514C58.1371 55.4 58.3343 55.6 58.5829 55.7371C58.8314 55.8771 59.1257 55.9486 59.4543 55.9486C59.8171 55.9486 60.1286 55.8629 60.3771 55.6943C60.6257 55.5257 60.7914 55.2829 60.8743 54.9714V54.96C60.8743 54.9571 60.8686 54.9543 60.8629 54.9543L60.3 54.8857C60.3 54.8857 60.2857 54.8886 60.2829 54.8971C60.2343 55.0629 60.1371 55.1943 59.9943 55.2857C59.8514 55.3771 59.6686 55.4257 59.4514 55.4257C59.1629 55.4257 58.9229 55.34 58.7429 55.1714C58.5657 55.0057 58.46 54.7714 58.4286 54.4771H60.9229C60.9229 54.4771 60.9371 54.4714 60.9371 54.4629C60.9429 54.4257 60.9429 54.36 60.9429 54.2657C60.9429 53.9514 60.88 53.6686 60.7543 53.4229C60.6333 53.1827 60.4458 52.9824 60.2143 52.8457L60.2114 52.8371ZM58.44 54.0114C58.4829 53.7486 58.5857 53.5371 58.7514 53.3857C58.92 53.2314 59.1429 53.1543 59.4086 53.1543C59.6743 53.1543 59.88 53.2314 60.04 53.3857C60.1971 53.5371 60.2914 53.7457 60.3257 54.0114H58.44ZM63.0429 52.6286C62.7943 52.6286 62.5914 52.6829 62.4429 52.7857C62.3086 52.88 62.1971 53.0171 62.1114 53.1971V52.7257C62.1114 52.7257 62.1057 52.7114 62.0971 52.7114H61.5143C61.5143 52.7114 61.5 52.7171 61.5 52.7257V55.8486C61.5 55.8486 61.5057 55.8629 61.5143 55.8629H62.12C62.12 55.8629 62.1343 55.8571 62.1343 55.8486V54.1429C62.1343 53.84 62.2114 53.6 62.3629 53.4314C62.5143 53.2629 62.7257 53.1771 62.9914 53.1771C63.0829 53.1771 63.18 53.1886 63.2771 53.2114C63.2829 53.2114 63.2857 53.2114 63.2914 53.2086C63.2971 53.2057 63.2971 53.2 63.2971 53.1971V52.6657C63.2971 52.6657 63.2914 52.6514 63.2857 52.6514C63.2171 52.6371 63.1371 52.6314 63.0486 52.6314L63.0429 52.6286ZM65.82 52.8371C65.5886 52.7 65.3143 52.6314 65.0086 52.6314C64.7029 52.6314 64.4257 52.7029 64.1829 52.8457C63.94 52.9886 63.7457 53.1857 63.6086 53.44C63.4714 53.6914 63.4029 53.98 63.4029 54.2943C63.4029 54.6086 63.4714 54.9029 63.6086 55.1514C63.7457 55.4 63.9429 55.6 64.1914 55.7371C64.44 55.8771 64.7343 55.9486 65.0629 55.9486C65.4257 55.9486 65.7371 55.8629 65.9857 55.6943C66.2343 55.5257 66.4 55.2829 66.4829 54.9714V54.96C66.4829 54.9571 66.4771 54.9543 66.4714 54.9543L65.9086 54.8857C65.9086 54.8857 65.8943 54.8886 65.8914 54.8971C65.8429 55.0629 65.7457 55.1943 65.6029 55.2857C65.46 55.3771 65.2771 55.4257 65.06 55.4257C64.7714 55.4257 64.5314 55.34 64.3514 55.1714C64.1743 55.0057 64.0686 54.7714 64.0371 54.4771H66.5314C66.5314 54.4771 66.5457 54.4714 66.5457 54.4629C66.5514 54.4257 66.5514 54.36 66.5514 54.2657C66.5514 53.9514 66.4886 53.6686 66.3629 53.4229C66.2418 53.1827 66.0544 52.9824 65.8229 52.8457L65.82 52.8371ZM64.0457 54.0114C64.0886 53.7486 64.1914 53.5371 64.3571 53.3857C64.5257 53.2314 64.7486 53.1543 65.0143 53.1543C65.28 53.1543 65.4857 53.2314 65.6457 53.3857C65.8029 53.5371 65.8971 53.7457 65.9314 54.0114H64.0457ZM69.4886 51.3C69.4886 51.3 69.4743 51.3057 69.4743 51.3143V53.1714C69.36 53.0114 69.2171 52.88 69.0429 52.7857C68.8571 52.6829 68.6371 52.6286 68.3943 52.6286C68.1229 52.6286 67.8714 52.7029 67.6429 52.8486C67.4143 52.9943 67.2343 53.1971 67.1 53.4486C66.9686 53.7 66.9 53.9829 66.9 54.2886C66.9 54.5943 66.9686 54.8943 67.1 55.1457C67.2314 55.3943 67.4143 55.5914 67.6429 55.7314C67.8714 55.8714 68.1286 55.9429 68.4057 55.9429C68.8657 55.9429 69.2286 55.7486 69.4857 55.3629V55.8486C69.4857 55.8486 69.4914 55.8629 69.5 55.8629H70.0829C70.0829 55.8629 70.0971 55.8571 70.0971 55.8486V51.3171C70.0971 51.3171 70.0914 51.3029 70.0829 51.3029H69.4857L69.4886 51.3ZM68.5286 55.4143C68.2314 55.4143 67.9886 55.3114 67.8086 55.1114C67.6286 54.9086 67.5371 54.6314 67.5371 54.2886C67.5371 53.9457 67.6286 53.6629 67.8086 53.46C67.9886 53.2571 68.2314 53.1571 68.5286 53.1571C68.8257 53.1571 69.06 53.26 69.2314 53.46C69.4057 53.6629 69.4914 53.94 69.4914 54.2886C69.4914 54.6371 69.4029 54.9086 69.2314 55.1114C69.0571 55.3114 68.8229 55.4143 68.5286 55.4143ZM74.8629 52.8457C74.6343 52.7029 74.3829 52.6286 74.1114 52.6286C73.8714 52.6286 73.6543 52.6857 73.4629 52.7943C73.2886 52.8943 73.1457 53.0314 73.04 53.1971V51.3114C73.04 51.3114 73.0343 51.2971 73.0257 51.2971H72.42C72.42 51.2971 72.4057 51.3029 72.4057 51.3114V55.8429C72.4057 55.8429 72.4114 55.8571 72.42 55.8571H73.0029C73.0029 55.8571 73.0171 55.8514 73.0171 55.8429V55.3886C73.2771 55.7543 73.64 55.9371 74.0971 55.9371C74.3771 55.9371 74.6343 55.8657 74.86 55.7229C75.0886 55.58 75.2714 55.3829 75.4029 55.1343C75.5343 54.8857 75.6029 54.5971 75.6029 54.2771C75.6029 53.9571 75.5343 53.6886 75.4029 53.4371C75.2714 53.1857 75.0886 52.9857 74.86 52.84L74.8629 52.8457ZM74.9714 54.2829C74.9714 54.6314 74.88 54.9086 74.7 55.1114C74.52 55.3143 74.2771 55.4143 73.98 55.4143C73.6829 55.4143 73.4486 55.3114 73.2771 55.1114C73.1029 54.9086 73.0143 54.6314 73.0143 54.2829C73.0143 53.9343 73.1029 53.6629 73.2771 53.46C73.4514 53.26 73.6886 53.1571 73.9857 53.1571C74.2829 53.1571 74.5257 53.26 74.7029 53.46C74.88 53.6629 74.9714 53.94 74.9714 54.2829ZM78.74 52.7086H78.1229C78.1229 52.7086 78.1114 52.7114 78.1086 52.7171L77.2371 54.8771L76.3257 52.7171C76.3257 52.7171 76.3171 52.7086 76.3114 52.7086H75.66C75.66 52.7086 75.6486 52.7086 75.6457 52.7143C75.6429 52.72 75.6429 52.7229 75.6457 52.7286L76.92 55.6429L76.3457 56.98V56.9943C76.3457 56.9971 76.3543 57 76.36 57H76.9714C76.9714 57 76.9829 56.9971 76.9857 56.9914L78.7571 52.7286V52.7143C78.7571 52.7086 78.7486 52.7086 78.7429 52.7086H78.74Z" fill="#AEA8A5"/>
<path d="M89.7343 54.9057L91.4 53.18C91.8052 52.7595 92.0316 52.1983 92.0314 51.6143H88.78V52.3943H90.9657V52.4714L89.3057 54.1914C88.8976 54.6151 88.6693 55.1803 88.6686 55.7686H92.1028V54.9914H89.7343V54.9029V54.9057ZM96.4971 53.74C96.4971 52.2457 95.6743 51.4943 94.4428 51.4943C93.1428 51.4943 92.2514 52.3629 92.2514 53.7C92.2514 54.9657 93.0371 55.8943 94.42 55.8943C95.6171 55.8943 96.3086 55.2743 96.42 54.4343H95.5114C95.4143 54.8029 95.1 55.0886 94.6371 55.0886H94.2628C93.66 55.0886 93.2514 54.6 93.1714 53.9514H96.5V53.74H96.4971ZM93.2086 53.2543C93.3314 52.6771 93.7171 52.3029 94.1943 52.3029H94.6743C95.1114 52.3029 95.52 52.66 95.5743 53.2543H93.2086ZM87.2943 54.0743C87.2943 54.6429 86.9086 55.0371 86.4828 55.0371H85.9857C85.5828 55.0371 85.28 54.6771 85.28 54.0743V51.6171H83.5514C83.1857 51.6171 82.88 51.8657 82.7857 52.2L82.7771 51.6171V51.32C82.7771 51.04 82.8057 50.7943 83.1257 50.7943H84.3857V50H82.8714C82.1828 50 81.8686 50.4714 81.8686 51.0486V51.6171H81.0657V52.4229H81.8714V55.7714H82.7886V52.4229H84.3628V54.2314H84.3571C84.3571 55.3086 84.9514 55.8943 85.9543 55.8943C86.6286 55.8943 87.0657 55.6314 87.3171 55.2057V55.7743H88.2086V51.62H87.2914V54.0771L87.2943 54.0743ZM116.551 55.74V50.0086H117.306V52.2229C117.591 51.7371 118.051 51.4943 118.72 51.4943C119.806 51.4943 120.386 52.12 120.386 53.18V55.7429H119.64V53.2857C119.64 52.6171 119.291 52.2171 118.817 52.2171H118.243C117.74 52.2171 117.306 52.6686 117.306 53.2857V55.7429H116.551V55.74ZM115.011 55.74C114.351 55.74 113.997 55.4 113.997 54.82V52.3086H113.146V51.6143H113.997V50.4514H114.751V51.6143H115.88V52.3086H114.751V54.6029C114.751 54.88 114.837 55.0286 115.16 55.0286H115.923V55.74H115.011ZM111.869 55.74V50.72H111.34V50.0086H112.614V55.74H111.869ZM108.691 55.8629C107.477 55.8629 106.651 54.9771 106.651 53.6743C106.651 52.3714 107.511 51.4943 108.726 51.4943C109.351 51.4943 109.871 51.7886 110.149 52.1286V51.6171H110.877V55.7429H110.149V55.16C109.829 55.5771 109.323 55.8629 108.691 55.8629ZM109.151 55.1486C109.706 55.1486 110.131 54.6714 110.131 54.0714V53.28C110.131 52.6886 109.714 52.2029 109.151 52.2029H108.526C107.909 52.2029 107.406 52.8629 107.406 53.6714C107.406 54.48 107.909 55.1486 108.526 55.1486H109.151ZM104.211 55.8629C102.849 55.8629 102.086 54.9429 102.086 53.6829C102.086 52.3543 102.946 51.4943 104.246 51.4943C105.477 51.4943 106.251 52.2486 106.251 53.76V53.9086H102.84C102.917 54.62 103.36 55.16 104.037 55.16H104.437C104.949 55.16 105.28 54.8486 105.4 54.4486H106.146C106.014 55.2657 105.374 55.8629 104.211 55.8629ZM102.874 53.2657H105.486C105.426 52.5971 104.974 52.1971 104.489 52.1971H103.96C103.431 52.1971 102.997 52.6229 102.874 53.2657ZM97.6171 55.74V50.0086H98.3714V52.2229C98.6571 51.7371 99.1171 51.4943 99.7857 51.4943C100.871 51.4943 101.451 52.12 101.451 53.18V55.7429H100.706V53.2857C100.706 52.6171 100.357 52.2171 99.88 52.2171H99.3057C98.8028 52.2171 98.3686 52.6686 98.3686 53.2857V55.7429H97.6143L97.6171 55.74Z" fill="#19332F"/>
<path d="M122.797 50.0086H122.429C122.429 50.0086 122.417 50.0114 122.414 50.0171L122.109 50.8771L121.803 50.0171C121.803 50.0171 121.794 50.0086 121.789 50.0086H121.42C121.42 50.0086 121.406 50.0143 121.406 50.0229V51.2771C121.406 51.2771 121.411 51.2914 121.42 51.2914H121.671C121.671 51.2914 121.686 51.2857 121.686 51.2771V50.4657L121.974 51.2829C121.974 51.2829 121.983 51.2914 121.989 51.2914H122.234C122.234 51.2914 122.246 51.2886 122.249 51.2829L122.537 50.4657V51.2771C122.537 51.2771 122.543 51.2914 122.551 51.2914H122.797C122.797 51.2914 122.811 51.2857 122.811 51.2771V50.0229C122.811 50.0229 122.806 50.0086 122.797 50.0086ZM120.18 50.0086C120.18 50.0086 120.166 50.0143 120.166 50.0229V50.2429C120.166 50.2429 120.171 50.2571 120.18 50.2571H120.54V51.2771C120.54 51.2771 120.546 51.2914 120.554 51.2914H120.809C120.809 51.2914 120.823 51.2857 120.823 51.2771V50.2571H121.18C121.18 50.2571 121.194 50.2514 121.194 50.2429V50.0229C121.194 50.0229 121.189 50.0086 121.18 50.0086H120.177H120.18Z" fill="#18332F"/>
</svg>